solid model
facet normal 0.0 0.0 -1.0
outer loop
vertex -4.82962913144534 1.2940952255126 0.0
vertex -4.82962913144534 -1.2940952255126 0.0
vertex -5.0 4.89858719658941e-016 0.0
endloop
endfacet
facet normal 0.0 0.0 -1.0
outer loop
vertex -4.82962913144534 -1.2940952255126 0.0
vertex -4.82962913144534 1.2940952255126 0.0
vertex -4.33012701892219 2.5 0.0
endloop
endfacet
facet normal 0.0 0.0 -1.0
outer loop
vertex -4.82962913144534 -1.2940952255126 0.0
vertex -4.33012701892219 2.5 0.0
vertex -4.74434058129529 -1.5 0.0
endloop
endfacet
facet normal 0.0 0.0 -1.0
outer loop
vertex -4.74434058129529 -1.5 0.0
vertex -4.33012701892219 2.5 0.0
vertex -4.33012701892219 -2.5 0.0
endloop
endfacet
facet normal 0.0 0.0 -1.0
outer loop
vertex -4.33012701892219 -2.5 0.0
vertex -4.33012701892219 2.5 0.0
vertex -3.53553390593274 3.53553390593274 0.0
endloop
endfacet
facet normal 0.0 0.0 -1.0
outer loop
vertex -4.33012701892219 -2.5 0.0
vertex -3.53553390593274 3.53553390593274 0.0
vertex -4.24316817233662 -2.59754516100806 0.0
endloop
endfacet
facet normal 0.0 0.0 -1.0
outer loop
vertex -4.24316817233662 -2.59754516100806 0.0
vertex -3.53553390593274 3.53553390593274 0.0
vertex -4.13533148146357 -2.69134171618255 0.0
endloop
endfacet
facet normal 0.0 0.0 -1.0
outer loop
vertex -4.13533148146357 -2.69134171618255 0.0
vertex -3.53553390593274 3.53553390593274 0.0
vertex -4.01076104985779 -2.7777851165098 0.0
endloop
endfacet
facet normal 0.0 0.0 -1.0
outer loop
vertex -4.01076104985779 -2.7777851165098 0.0
vertex -3.53553390593274 3.53553390593274 0.0
vertex -3.87424404934599 -2.85355339059327 0.0
endloop
endfacet
facet normal 0.0 0.0 -1.0
outer loop
vertex -3.87424404934599 -2.85355339059327 0.0
vertex -3.53553390593274 3.53553390593274 0.0
vertex -3.73102675169822 -2.91573480615127 0.0
endloop
endfacet
facet normal 0.0 0.0 -1.0
outer loop
vertex -3.73102675169822 -2.91573480615127 0.0
vertex -3.53553390593274 3.53553390593274 0.0
vertex -3.58661291734589 -2.96193976625564 0.0
endloop
endfacet
facet normal 0.0 0.0 -1.0
outer loop
vertex -3.58661291734589 -2.96193976625564 0.0
vertex -3.53553390593274 3.53553390593274 0.0
vertex -3.44655228895496 -2.99039264020162 0.0
endloop
endfacet
facet normal 0.0 0.0 -1.0
outer loop
vertex -3.44655228895496 -2.99039264020162 0.0
vertex -3.53553390593274 3.53553390593274 0.0
vertex -2.5 4.33012701892219 0.0
endloop
endfacet
facet normal 0.0 0.0 -1.0
outer loop
vertex -3.44655228895496 -2.99039264020162 0.0
vertex -2.5 4.33012701892219 0.0
vertex -3.0 3.67394039744206e-016 0.0
endloop
endfacet
facet normal 0.0 0.0 -1.0
outer loop
vertex -3.44655228895496 -2.99039264020162 0.0
vertex -3.0 3.67394039744206e-016 0.0
vertex -3.31622731792758 -3.0 0.0
endloop
endfacet
facet normal 0.0 0.0 -1.0
outer loop
vertex -3.31622731792758 -3.0 0.0
vertex -3.0 3.67394039744206e-016 0.0
vertex -3.09807621135332 -3.0 0.0
endloop
endfacet
facet normal 0.0 0.0 -1.0
outer loop
vertex -3.09807621135332 -3.0 0.0
vertex -3.0 3.67394039744206e-016 0.0
vertex -3.00053105034525 -0.55349331046861 0.0
endloop
endfacet
facet normal 0.0 0.0 -1.0
outer loop
vertex -3.0 3.67394039744206e-016 0.0
vertex -2.5 4.33012701892219 0.0
vertex -2.8977774788672 0.776457135307563 0.0
endloop
endfacet
facet normal 0.0 0.0 -1.0
outer loop
vertex -2.8977774788672 0.776457135307563 0.0
vertex -2.5 4.33012701892219 0.0
vertex -2.59807621135332 1.5 0.0
endloop
endfacet
facet normal 0.0 0.0 -1.0
outer loop
vertex -2.59807621135332 1.5 0.0
vertex -2.5 4.33012701892219 0.0
vertex -2.12132034355964 2.12132034355964 0.0
endloop
endfacet
facet normal 0.0 0.0 -1.0
outer loop
vertex -2.12132034355964 2.12132034355964 0.0
vertex -2.5 4.33012701892219 0.0
vertex -1.2940952255126 4.82962913144534 0.0
endloop
endfacet
facet normal 0.0 0.0 -1.0
outer loop
vertex -2.12132034355964 2.12132034355964 0.0
vertex -1.2940952255126 4.82962913144534 0.0
vertex -1.5 2.59807621135332 0.0
endloop
endfacet
facet normal 0.0 0.0 -1.0
outer loop
vertex -1.5 2.59807621135332 0.0
vertex -1.2940952255126 4.82962913144534 0.0
vertex -0.776457135307562 2.89777747886721 0.0
endloop
endfacet
facet normal 0.0 0.0 -1.0
outer loop
vertex -0.776457135307562 2.89777747886721 0.0
vertex -1.2940952255126 4.82962913144534 0.0
vertex 1.83697019872103e-016 5.0 0.0
endloop
endfacet
facet normal 0.0 0.0 -1.0
outer loop
vertex -0.776457135307562 2.89777747886721 0.0
vertex 1.83697019872103e-016 5.0 0.0
vertex 1.83697019872103e-016 3.0 0.0
endloop
endfacet
facet normal 0.0 0.0 -1.0
outer loop
vertex 1.83697019872103e-016 3.0 0.0
vertex 1.83697019872103e-016 5.0 0.0
vertex 9.09807621135332 5.0 0.0
endloop
endfacet
facet normal 0.0 0.0 -1.0
outer loop
vertex 1.83697019872103e-016 3.0 0.0
vertex 9.09807621135332 5.0 0.0
vertex 0.776457135307563 2.89777747886721 0.0
endloop
endfacet
facet normal 0.0 0.0 -1.0
outer loop
vertex 0.776457135307563 2.89777747886721 0.0
vertex 9.09807621135332 5.0 0.0
vertex 1.5 2.59807621135332 0.0
endloop
endfacet
facet normal 0.0 0.0 -1.0
outer loop
vertex 1.5 2.59807621135332 0.0
vertex 9.09807621135332 5.0 0.0
vertex 2.12132034355964 2.12132034355964 0.0
endloop
endfacet
facet normal 0.0 0.0 -1.0
outer loop
vertex 2.12132034355964 2.12132034355964 0.0
vertex 9.09807621135332 5.0 0.0
vertex 2.59807621135332 1.5 0.0
endloop
endfacet
facet normal 0.0 0.0 -1.0
outer loop
vertex 2.59807621135332 1.5 0.0
vertex 9.09807621135332 5.0 0.0
vertex 2.89777747886721 0.776457135307562 0.0
endloop
endfacet
facet normal 0.0 0.0 -1.0
outer loop
vertex 2.89777747886721 0.776457135307562 0.0
vertex 9.09807621135332 5.0 0.0
vertex 3.0 0.0 0.0
endloop
endfacet
facet normal 0.0 0.0 -1.0
outer loop
vertex 3.0 0.0 0.0
vertex 9.09807621135332 5.0 0.0
vertex 3.00053105034525 -0.553493310468614 0.0
endloop
endfacet
facet normal 0.0 0.0 -1.0
outer loop
vertex 3.00053105034525 -0.553493310468614 0.0
vertex 9.09807621135332 5.0 0.0
vertex 3.00053105034525 -2.99039264020162 0.0
endloop
endfacet
facet normal 0.0 0.0 -1.0
outer loop
vertex 3.00053105034525 -2.99039264020162 0.0
vertex 9.09807621135332 5.0 0.0
vertex 3.09807621135332 -3.0 0.0
endloop
endfacet
facet normal 0.0 0.0 -1.0
outer loop
vertex 3.09807621135332 -3.0 0.0
vertex 9.09807621135332 5.0 0.0
vertex 9.09807621135331 -3.0 0.0
endloop
endfacet
facet normal 0.0 0.0 -1.0
outer loop
vertex 9.09807621135331 -3.0 0.0
vertex 9.09807621135332 5.0 0.0
vertex 9.29316653336944 -2.98078528040323 0.0
endloop
endfacet
facet normal 0.0 0.0 -1.0
outer loop
vertex 9.29316653336944 -2.98078528040323 0.0
vertex 9.09807621135332 5.0 0.0
vertex 9.29316653336944 4.98078528040323 0.0
endloop
endfacet
facet normal 0.0 0.0 -1.0
outer loop
vertex 9.29316653336944 -2.98078528040323 0.0
vertex 9.29316653336944 4.98078528040323 0.0
vertex 9.4807596437184 -2.92387953251129 0.0
endloop
endfacet
facet normal 0.0 0.0 -1.0
outer loop
vertex 9.4807596437184 -2.92387953251129 0.0
vertex 9.29316653336944 4.98078528040323 0.0
vertex 9.48075964371841 4.92387953251129 0.0
endloop
endfacet
facet normal 0.0 0.0 -1.0
outer loop
vertex 9.4807596437184 -2.92387953251129 0.0
vertex 9.48075964371841 4.92387953251129 0.0
vertex 9.65364644437292 -2.83146961230254 0.0
endloop
endfacet
facet normal 0.0 0.0 -1.0
outer loop
vertex 9.65364644437292 -2.83146961230254 0.0
vertex 9.48075964371841 4.92387953251129 0.0
vertex 9.65364644437292 4.83146961230255 0.0
endloop
endfacet
facet normal 0.0 0.0 -1.0
outer loop
vertex 9.65364644437292 -2.83146961230254 0.0
vertex 9.65364644437292 4.83146961230255 0.0
vertex 9.80518299253986 -2.70710678118655 0.0
endloop
endfacet
facet normal 0.0 0.0 -1.0
outer loop
vertex 9.80518299253986 -2.70710678118655 0.0
vertex 9.65364644437292 4.83146961230255 0.0
vertex 9.80518299253986 4.70710678118655 0.0
endloop
endfacet
facet normal 0.0 0.0 -1.0
outer loop
vertex 9.80518299253986 -2.70710678118655 0.0
vertex 9.80518299253986 4.70710678118655 0.0
vertex 9.92954582365586 -2.5555702330196 0.0
endloop
endfacet
facet normal 0.0 0.0 -1.0
outer loop
vertex 9.92954582365586 -2.5555702330196 0.0
vertex 9.80518299253986 4.70710678118655 0.0
vertex 9.92954582365586 4.5555702330196 0.0
endloop
endfacet
facet normal 0.0 0.0 -1.0
outer loop
vertex 9.92954582365586 -2.5555702330196 0.0
vertex 9.92954582365586 4.5555702330196 0.0
vertex 10.0219557438646 -2.38268343236509 0.0
endloop
endfacet
facet normal 0.0 0.0 -1.0
outer loop
vertex 10.0219557438646 -2.38268343236509 0.0
vertex 9.92954582365586 4.5555702330196 0.0
vertex 10.0219557438646 4.38268343236509 0.0
endloop
endfacet
facet normal 0.0 0.0 -1.0
outer loop
vertex 10.0219557438646 -2.38268343236509 0.0
vertex 10.0219557438646 4.38268343236509 0.0
vertex 10.0788614917565 -2.19509032201613 0.0
endloop
endfacet
facet normal 0.0 0.0 -1.0
outer loop
vertex 10.0788614917565 -2.19509032201613 0.0
vertex 10.0219557438646 4.38268343236509 0.0
vertex 10.0788614917565 4.19509032201613 0.0
endloop
endfacet
facet normal 0.0 0.0 -1.0
outer loop
vertex 10.0788614917565 -2.19509032201613 0.0
vertex 10.0788614917565 4.19509032201613 0.0
vertex 10.0980762113533 -2.0 0.0
endloop
endfacet
facet normal 0.0 0.0 -1.0
outer loop
vertex 10.0980762113533 -2.0 0.0
vertex 10.0788614917565 4.19509032201613 0.0
vertex 10.0980762113533 4.0 0.0
endloop
endfacet
facet normal 0.0 0.0 -1.0
outer loop
vertex 2.63613644509767 -2.21467743238366 0.0
vertex 2.6076835711517 -2.59754516100806 0.0
vertex 2.6076835711517 -2.52847095700044 0.0
endloop
endfacet
facet normal 0.0 0.0 -1.0
outer loop
vertex 2.6076835711517 -2.59754516100806 0.0
vertex 2.63613644509767 -2.21467743238366 0.0
vertex 2.63613644509767 -2.69134171618255 0.0
endloop
endfacet
facet normal 0.0 0.0 -1.0
outer loop
vertex 2.63613644509767 -2.69134171618255 0.0
vertex 2.63613644509767 -2.21467743238366 0.0
vertex 2.68234140520204 -2.7777851165098 0.0
endloop
endfacet
facet normal 0.0 0.0 -1.0
outer loop
vertex 2.68234140520204 -2.7777851165098 0.0
vertex 2.63613644509767 -2.21467743238366 0.0
vertex 2.68234140520204 -1.87724130019963 0.0
endloop
endfacet
facet normal 0.0 0.0 -1.0
outer loop
vertex 2.68234140520204 -2.7777851165098 0.0
vertex 2.68234140520204 -1.87724130019963 0.0
vertex 2.74452282076004 -2.85355339059327 0.0
endloop
endfacet
facet normal 0.0 0.0 -1.0
outer loop
vertex 2.74452282076004 -2.85355339059327 0.0
vertex 2.68234140520204 -1.87724130019963 0.0
vertex 2.74452282076004 -1.52913004177182 0.0
endloop
endfacet
facet normal 0.0 0.0 -1.0
outer loop
vertex 2.74452282076004 -2.85355339059327 0.0
vertex 2.74452282076004 -1.52913004177182 0.0
vertex 2.82029109484351 -1.18372137753856 0.0
endloop
endfacet
facet normal 0.0 0.0 -1.0
outer loop
vertex 2.74452282076004 -2.85355339059327 0.0
vertex 2.82029109484351 -1.18372137753856 0.0
vertex 2.82029109484351 -2.91573480615127 0.0
endloop
endfacet
facet normal 0.0 0.0 -1.0
outer loop
vertex 2.82029109484351 -2.91573480615127 0.0
vertex 2.82029109484351 -1.18372137753856 0.0
vertex 2.90673449517077 -0.854289168758927 0.0
endloop
endfacet
facet normal 0.0 0.0 -1.0
outer loop
vertex 2.82029109484351 -2.91573480615127 0.0
vertex 2.90673449517077 -0.854289168758927 0.0
vertex 2.90673449517077 -2.96193976625564 0.0
endloop
endfacet
facet normal 0.0 0.0 -1.0
outer loop
vertex 2.90673449517077 -2.96193976625564 0.0
vertex 2.90673449517077 -0.854289168758927 0.0
vertex 3.00053105034525 -2.99039264020162 0.0
endloop
endfacet
facet normal 0.0 0.0 -1.0
outer loop
vertex 3.00053105034525 -2.99039264020162 0.0
vertex 2.90673449517077 -0.854289168758927 0.0
vertex 3.00053105034525 -0.553493310468614 0.0
endloop
endfacet
facet normal 0.0 0.0 -1.0
outer loop
vertex 3.00053105034525 -0.553493310468614 0.0
vertex 2.8977774788672 -0.776457135307565 0.0
vertex 3.0 0.0 0.0
endloop
endfacet
facet normal 0.0 0.0 -1.0
outer loop
vertex -3.00053105034525 -0.55349331046861 0.0
vertex -3.00053105034525 -2.99039264020162 0.0
vertex -3.09807621135332 -3.0 0.0
endloop
endfacet
facet normal 0.0 0.0 -1.0
outer loop
vertex -3.00053105034525 -2.99039264020162 0.0
vertex -3.00053105034525 -0.55349331046861 0.0
vertex -2.90673449517077 -0.854289168758924 0.0
endloop
endfacet
facet normal 0.0 0.0 -1.0
outer loop
vertex -3.00053105034525 -2.99039264020162 0.0
vertex -2.90673449517077 -0.854289168758924 0.0
vertex -2.90673449517077 -2.96193976625564 0.0
endloop
endfacet
facet normal 0.0 0.0 -1.0
outer loop
vertex -2.90673449517077 -2.96193976625564 0.0
vertex -2.90673449517077 -0.854289168758924 0.0
vertex -2.82029109484351 -1.18372137753856 0.0
endloop
endfacet
facet normal 0.0 0.0 -1.0
outer loop
vertex -2.90673449517077 -2.96193976625564 0.0
vertex -2.82029109484351 -1.18372137753856 0.0
vertex -2.82029109484351 -2.91573480615127 0.0
endloop
endfacet
facet normal 0.0 0.0 -1.0
outer loop
vertex -2.82029109484351 -2.91573480615127 0.0
vertex -2.82029109484351 -1.18372137753856 0.0
vertex -2.74452282076004 -1.52913004177182 0.0
endloop
endfacet
facet normal 0.0 0.0 -1.0
outer loop
vertex -2.82029109484351 -2.91573480615127 0.0
vertex -2.74452282076004 -1.52913004177182 0.0
vertex -2.74452282076004 -2.85355339059327 0.0
endloop
endfacet
facet normal 0.0 0.0 -1.0
outer loop
vertex -2.74452282076004 -2.85355339059327 0.0
vertex -2.74452282076004 -1.52913004177182 0.0
vertex -2.68234140520204 -1.87724130019963 0.0
endloop
endfacet
facet normal 0.0 0.0 -1.0
outer loop
vertex -2.74452282076004 -2.85355339059327 0.0
vertex -2.68234140520204 -1.87724130019963 0.0
vertex -2.68234140520204 -2.7777851165098 0.0
endloop
endfacet
facet normal 0.0 0.0 -1.0
outer loop
vertex -2.68234140520204 -2.7777851165098 0.0
vertex -2.68234140520204 -1.87724130019963 0.0
vertex -2.63613644509767 -2.21467743238366 0.0
endloop
endfacet
facet normal 0.0 0.0 -1.0
outer loop
vertex -2.68234140520204 -2.7777851165098 0.0
vertex -2.63613644509767 -2.21467743238366 0.0
vertex -2.63613644509767 -2.69134171618255 0.0
endloop
endfacet
facet normal 0.0 0.0 -1.0
outer loop
vertex -2.63613644509767 -2.69134171618255 0.0
vertex -2.63613644509767 -2.21467743238366 0.0
vertex -2.6076835711517 -2.52847095700044 0.0
endloop
endfacet
facet normal 0.0 0.0 -1.0
outer loop
vertex -2.6076835711517 -2.52847095700044 0.0
vertex -2.63613644509767 -2.21467743238366 0.0
vertex -2.59807621135332 -2.5 0.0
endloop
endfacet
facet normal 0.0 0.0 -1.0
outer loop
vertex -2.6076835711517 -2.59754516100806 0.0
vertex -2.63613644509767 -2.69134171618255 0.0
vertex -2.6076835711517 -2.52847095700044 0.0
endloop
endfacet
facet normal 0.0 0.0 -1.0
outer loop
vertex -2.89777747886721 -0.776457135307561 0.0
vertex -3.00053105034525 -0.55349331046861 0.0
vertex -3.0 3.67394039744206e-016 0.0
endloop
endfacet
facet normal -0.38268343236509 -0.923879532511287 -0.0
outer loop
vertex 1.5 2.59807621135332 6.0
vertex 0.776457135307563 2.89777747886721 0.0
vertex 1.5 2.59807621135332 0.0
endloop
endfacet
facet normal -0.38268343236509 -0.923879532511287 -0.0
outer loop
vertex 0.776457135307563 2.89777747886721 0.0
vertex 1.5 2.59807621135332 6.0
vertex 0.776457135307563 2.89777747886721 6.0
endloop
endfacet
facet normal -0.608761429008721 -0.793353340291235 -0.0
outer loop
vertex 2.12132034355964 2.12132034355964 6.0
vertex 1.5 2.59807621135332 0.0
vertex 2.12132034355964 2.12132034355964 0.0
endloop
endfacet
facet normal -0.608761429008721 -0.793353340291235 -0.0
outer loop
vertex 1.5 2.59807621135332 0.0
vertex 2.12132034355964 2.12132034355964 6.0
vertex 1.5 2.59807621135332 6.0
endloop
endfacet
facet normal -0.793353340291235 -0.60876142900872 -0.0
outer loop
vertex 2.12132034355964 2.12132034355964 6.0
vertex 2.59807621135332 1.5 0.0
vertex 2.59807621135332 1.5 6.0
endloop
endfacet
facet normal -0.793353340291235 -0.60876142900872 -0.0
outer loop
vertex 2.59807621135332 1.5 0.0
vertex 2.12132034355964 2.12132034355964 6.0
vertex 2.12132034355964 2.12132034355964 0.0
endloop
endfacet
facet normal -0.923879532511287 -0.38268343236509 -0.0
outer loop
vertex 2.59807621135332 1.5 6.0
vertex 2.89777747886721 0.776457135307562 0.0
vertex 2.89777747886721 0.776457135307562 6.0
endloop
endfacet
facet normal -0.923879532511287 -0.38268343236509 -0.0
outer loop
vertex 2.89777747886721 0.776457135307562 0.0
vertex 2.59807621135332 1.5 6.0
vertex 2.59807621135332 1.5 0.0
endloop
endfacet
facet normal -0.991444861373811 -0.130526192220051 -0.0
outer loop
vertex 2.89777747886721 0.776457135307562 6.0
vertex 3.0 0.0 0.0
vertex 3.0 0.0 6.0
endloop
endfacet
facet normal -0.991444861373811 -0.130526192220051 -0.0
outer loop
vertex 3.0 0.0 0.0
vertex 2.89777747886721 0.776457135307562 6.0
vertex 2.89777747886721 0.776457135307562 0.0
endloop
endfacet
facet normal -0.99144486137381 0.130526192220052 0.0
outer loop
vertex 3.0 0.0 6.0
vertex 2.8977774788672 -0.776457135307565 0.0
vertex 2.8977774788672 -0.776457135307565 6.0
endloop
endfacet
facet normal -0.99144486137381 0.130526192220052 0.0
outer loop
vertex 2.8977774788672 -0.776457135307565 0.0
vertex 3.0 0.0 6.0
vertex 3.0 0.0 0.0
endloop
endfacet
facet normal 0.984418427359298 0.175841860418522 -0.0
outer loop
vertex -2.74452282076004 -1.52913004177182 0.0
vertex -2.68234140520204 -1.87724130019963 6.0
vertex -2.68234140520204 -1.87724130019963 0.0
endloop
endfacet
facet normal 0.984418427359298 0.175841860418522 -0.0
outer loop
vertex -2.68234140520204 -1.87724130019963 6.0
vertex -2.74452282076004 -1.52913004177182 0.0
vertex -2.74452282076004 -1.52913004177182 6.0
endloop
endfacet
facet normal 0.990754961262721 0.135663579244042 -0.0
outer loop
vertex -2.68234140520204 -1.87724130019963 0.0
vertex -2.63613644509767 -2.21467743238366 6.0
vertex -2.63613644509767 -2.21467743238366 0.0
endloop
endfacet
facet normal 0.990754961262721 0.135663579244042 -0.0
outer loop
vertex -2.63613644509767 -2.21467743238366 6.0
vertex -2.68234140520204 -1.87724130019963 0.0
vertex -2.68234140520204 -1.87724130019963 6.0
endloop
endfacet
facet normal 0.999308717415905 0.0371764346943011 -1.20390354382569e-020
outer loop
vertex -2.6076835711517 -2.59754516100806 0.0
vertex -2.59807621135332 -2.80656296487638 6.0
vertex -2.59807621135332 -2.80656296487638 0.0
endloop
endfacet
facet normal 0.999308717415905 0.0371764346943011 -1.20390354382569e-020
outer loop
vertex -2.59807621135332 -2.80656296487638 6.0
vertex -2.6076835711517 -2.59754516100806 0.0
vertex -2.6076835711517 -2.59754516100806 6.0
endloop
endfacet
facet normal 0.999308717415905 0.0371764346943011 -1.20390354382569e-020
outer loop
vertex -2.6076835711517 -2.59754516100806 6.0
vertex -2.6076835711517 -2.59754516100806 0.0
vertex -2.6076835711517 -2.52847095700044 0.0
endloop
endfacet
facet normal 0.999308717415905 0.0371764346943011 -1.20390354382569e-020
outer loop
vertex -2.6076835711517 -2.59754516100806 6.0
vertex -2.6076835711517 -2.52847095700044 0.0
vertex -2.6076835711517 -2.52847095700044 6.0
endloop
endfacet
facet normal 0.99421843400637 0.107376466145619 -6.95445430306458e-020
outer loop
vertex -2.59807621135332 -2.5 0.0
vertex -2.6076835711517 -2.52847095700044 6.0
vertex -2.6076835711517 -2.52847095700044 0.0
endloop
endfacet
facet normal 0.99421843400637 0.107376466145619 -6.95445430306458e-020
outer loop
vertex -2.6076835711517 -2.52847095700044 6.0
vertex -2.59807621135332 -2.5 0.0
vertex -2.59807621135332 -2.5 6.0
endloop
endfacet
facet normal 0.99421843400637 0.107376466145619 -6.95445430306458e-020
outer loop
vertex -2.59807621135332 -2.5 6.0
vertex -2.59807621135332 -2.5 0.0
vertex -2.63613644509767 -2.21467743238366 0.0
endloop
endfacet
facet normal 0.99421843400637 0.107376466145619 -6.95445430306458e-020
outer loop
vertex -2.59807621135332 -2.5 6.0
vertex -2.63613644509767 -2.21467743238366 0.0
vertex -2.63613644509767 -2.21467743238366 6.0
endloop
endfacet
facet normal -1.0 0.0 0.0
outer loop
vertex 2.6076835711517 -2.52847095700044 6.0
vertex 2.6076835711517 -2.59754516100806 0.0
vertex 2.6076835711517 -2.59754516100806 6.0
endloop
endfacet
facet normal -1.0 0.0 0.0
outer loop
vertex 2.6076835711517 -2.59754516100806 0.0
vertex 2.6076835711517 -2.52847095700044 6.0
vertex 2.6076835711517 -2.52847095700044 0.0
endloop
endfacet
facet normal 0.0980171403295618 -0.995184726672197 0.0
outer loop
vertex -3.00053105034525 -2.99039264020162 6.0
vertex -3.09807621135332 -3.0 0.0
vertex -3.00053105034525 -2.99039264020162 0.0
endloop
endfacet
facet normal 0.0980171403295618 -0.995184726672197 0.0
outer loop
vertex -3.09807621135332 -3.0 0.0
vertex -3.00053105034525 -2.99039264020162 6.0
vertex -3.09807621135332 -3.0 6.0
endloop
endfacet
facet normal -0.956940335732209 -0.290284677254461 0.0
outer loop
vertex 2.6076835711517 -2.59754516100806 6.0
vertex 2.63613644509767 -2.69134171618255 0.0
vertex 2.63613644509767 -2.69134171618255 6.0
endloop
endfacet
facet normal -0.956940335732209 -0.290284677254461 0.0
outer loop
vertex 2.63613644509767 -2.69134171618255 0.0
vertex 2.6076835711517 -2.59754516100806 6.0
vertex 2.6076835711517 -2.59754516100806 0.0
endloop
endfacet
facet normal 0.290284677254461 -0.956940335732209 0.0
outer loop
vertex -2.90673449517077 -2.96193976625564 6.0
vertex -3.00053105034525 -2.99039264020162 0.0
vertex -2.90673449517077 -2.96193976625564 0.0
endloop
endfacet
facet normal 0.290284677254461 -0.956940335732209 0.0
outer loop
vertex -3.00053105034525 -2.99039264020162 0.0
vertex -2.90673449517077 -2.96193976625564 6.0
vertex -3.00053105034525 -2.99039264020162 6.0
endloop
endfacet
facet normal -0.881921264348355 -0.471396736825997 0.0
outer loop
vertex 2.63613644509767 -2.69134171618255 6.0
vertex 2.68234140520204 -2.7777851165098 0.0
vertex 2.68234140520204 -2.7777851165098 6.0
endloop
endfacet
facet normal -0.881921264348355 -0.471396736825997 0.0
outer loop
vertex 2.68234140520204 -2.7777851165098 0.0
vertex 2.63613644509767 -2.69134171618255 6.0
vertex 2.63613644509767 -2.69134171618255 0.0
endloop
endfacet
facet normal 0.471396736826 -0.881921264348354 0.0
outer loop
vertex -2.82029109484351 -2.91573480615127 6.0
vertex -2.90673449517077 -2.96193976625564 0.0
vertex -2.82029109484351 -2.91573480615127 0.0
endloop
endfacet
facet normal 0.471396736826 -0.881921264348354 0.0
outer loop
vertex -2.90673449517077 -2.96193976625564 0.0
vertex -2.82029109484351 -2.91573480615127 6.0
vertex -2.90673449517077 -2.96193976625564 6.0
endloop
endfacet
facet normal -0.773010453362736 -0.634393284163646 0.0
outer loop
vertex 2.68234140520204 -2.7777851165098 6.0
vertex 2.74452282076004 -2.85355339059327 0.0
vertex 2.74452282076004 -2.85355339059327 6.0
endloop
endfacet
facet normal -0.773010453362736 -0.634393284163646 0.0
outer loop
vertex 2.74452282076004 -2.85355339059327 0.0
vertex 2.68234140520204 -2.7777851165098 6.0
vertex 2.68234140520204 -2.7777851165098 0.0
endloop
endfacet
facet normal 0.634393284163644 -0.773010453362738 0.0
outer loop
vertex -2.74452282076004 -2.85355339059327 6.0
vertex -2.82029109484351 -2.91573480615127 0.0
vertex -2.74452282076004 -2.85355339059327 0.0
endloop
endfacet
facet normal 0.634393284163644 -0.773010453362738 0.0
outer loop
vertex -2.82029109484351 -2.91573480615127 0.0
vertex -2.74452282076004 -2.85355339059327 6.0
vertex -2.82029109484351 -2.91573480615127 6.0
endloop
endfacet
facet normal -0.634393284163644 -0.773010453362738 0.0
outer loop
vertex 2.82029109484351 -2.91573480615127 6.0
vertex 2.74452282076004 -2.85355339059327 0.0
vertex 2.82029109484351 -2.91573480615127 0.0
endloop
endfacet
facet normal -0.634393284163644 -0.773010453362738 0.0
outer loop
vertex 2.74452282076004 -2.85355339059327 0.0
vertex 2.82029109484351 -2.91573480615127 6.0
vertex 2.74452282076004 -2.85355339059327 6.0
endloop
endfacet
facet normal 0.773010453362738 -0.634393284163644 -0.0
outer loop
vertex -2.68234140520204 -2.7777851165098 0.0
vertex -2.74452282076004 -2.85355339059327 6.0
vertex -2.74452282076004 -2.85355339059327 0.0
endloop
endfacet
facet normal 0.773010453362738 -0.634393284163644 -0.0
outer loop
vertex -2.74452282076004 -2.85355339059327 6.0
vertex -2.68234140520204 -2.7777851165098 0.0
vertex -2.68234140520204 -2.7777851165098 6.0
endloop
endfacet
facet normal -0.471396736826 -0.881921264348354 0.0
outer loop
vertex 2.90673449517077 -2.96193976625564 6.0
vertex 2.82029109484351 -2.91573480615127 0.0
vertex 2.90673449517077 -2.96193976625564 0.0
endloop
endfacet
facet normal -0.471396736826 -0.881921264348354 0.0
outer loop
vertex 2.82029109484351 -2.91573480615127 0.0
vertex 2.90673449517077 -2.96193976625564 6.0
vertex 2.82029109484351 -2.91573480615127 6.0
endloop
endfacet
facet normal 0.881921264348354 -0.471396736826 -0.0
outer loop
vertex -2.63613644509767 -2.69134171618255 0.0
vertex -2.68234140520204 -2.7777851165098 6.0
vertex -2.68234140520204 -2.7777851165098 0.0
endloop
endfacet
facet normal 0.881921264348354 -0.471396736826 -0.0
outer loop
vertex -2.68234140520204 -2.7777851165098 6.0
vertex -2.63613644509767 -2.69134171618255 0.0
vertex -2.63613644509767 -2.69134171618255 6.0
endloop
endfacet
facet normal -0.29028467725446 -0.956940335732209 0.0
outer loop
vertex 3.00053105034525 -2.99039264020162 6.0
vertex 2.90673449517077 -2.96193976625564 0.0
vertex 3.00053105034525 -2.99039264020162 0.0
endloop
endfacet
facet normal -0.29028467725446 -0.956940335732209 0.0
outer loop
vertex 2.90673449517077 -2.96193976625564 0.0
vertex 3.00053105034525 -2.99039264020162 6.0
vertex 2.90673449517077 -2.96193976625564 6.0
endloop
endfacet
facet normal -0.0980171403295617 -0.995184726672197 0.0
outer loop
vertex 3.09807621135332 -3.0 6.0
vertex 3.00053105034525 -2.99039264020162 0.0
vertex 3.09807621135332 -3.0 0.0
endloop
endfacet
facet normal -0.0980171403295617 -0.995184726672197 0.0
outer loop
vertex 3.00053105034525 -2.99039264020162 0.0
vertex 3.09807621135332 -3.0 6.0
vertex 3.00053105034525 -2.99039264020162 6.0
endloop
endfacet
facet normal 0.956940335732209 -0.290284677254461 -0.0
outer loop
vertex -2.6076835711517 -2.59754516100806 0.0
vertex -2.63613644509767 -2.69134171618255 6.0
vertex -2.63613644509767 -2.69134171618255 0.0
endloop
endfacet
facet normal 0.956940335732209 -0.290284677254461 -0.0
outer loop
vertex -2.63613644509767 -2.69134171618255 6.0
vertex -2.6076835711517 -2.59754516100806 0.0
vertex -2.6076835711517 -2.59754516100806 6.0
endloop
endfacet
facet normal -0.999308717415905 0.0371764346943002 -2.40780708765133e-020
outer loop
vertex 2.6076835711517 -2.59754516100806 6.0
vertex 2.59807621135332 -2.80656296487638 0.0
vertex 2.59807621135332 -2.80656296487638 6.0
endloop
endfacet
facet normal -0.999308717415905 0.0371764346943002 -2.40780708765133e-020
outer loop
vertex 2.59807621135332 -2.80656296487638 0.0
vertex 2.6076835711517 -2.59754516100806 6.0
vertex 2.6076835711517 -2.59754516100806 0.0
endloop
endfacet
facet normal 0.996799880546801 -0.0799374639445329 -7.23164659269975e-021
outer loop
vertex -2.59807621135332 -2.5 0.0
vertex -2.6076835711517 -2.52847095700044 6.0
vertex -2.6076835711517 -2.52847095700044 0.0
endloop
endfacet
facet normal 0.996799880546801 -0.0799374639445329 -7.23164659269975e-021
outer loop
vertex -2.6076835711517 -2.52847095700044 6.0
vertex -2.59807621135332 -2.5 0.0
vertex -2.59807621135332 -2.5 6.0
endloop
endfacet
facet normal 0.967254434596684 0.253808705037965 -0.0
outer loop
vertex -2.90673449517077 -0.854289168758924 0.0
vertex -2.82029109484351 -1.18372137753856 6.0
vertex -2.82029109484351 -1.18372137753856 0.0
endloop
endfacet
facet normal 0.967254434596684 0.253808705037965 -0.0
outer loop
vertex -2.82029109484351 -1.18372137753856 6.0
vertex -2.90673449517077 -0.854289168758924 0.0
vertex -2.90673449517077 -0.854289168758924 6.0
endloop
endfacet
facet normal 4.40619762898108e-017 -1.0 1.16720466992881e-018
outer loop
vertex 9.09807621135331 -3.0 0.0
vertex 6.59807621135331 -3.0 2.13397459621556
vertex 3.09807621135332 -3.0 0.0
endloop
endfacet
facet normal 4.40619762898108e-017 -1.0 1.16720466992881e-018
outer loop
vertex 6.59807621135331 -3.0 2.13397459621556
vertex 9.09807621135331 -3.0 0.0
vertex 6.80518299253986 -3.0 2.29289321881345
endloop
endfacet
facet normal 4.40619762898108e-017 -1.0 1.16720466992881e-018
outer loop
vertex 6.80518299253986 -3.0 2.29289321881345
vertex 9.09807621135331 -3.0 0.0
vertex 6.96410161513775 -3.0 2.5
endloop
endfacet
facet normal 4.40619762898108e-017 -1.0 1.16720466992881e-018
outer loop
vertex 6.96410161513775 -3.0 2.5
vertex 9.09807621135331 -3.0 0.0
vertex 9.09807621135331 -3.0 6.0
endloop
endfacet
facet normal 4.40619762898108e-017 -1.0 1.16720466992881e-018
outer loop
vertex 3.09807621135332 -3.0 0.0
vertex 6.59807621135331 -3.0 2.13397459621556
vertex 6.35689525645584 -3.0 2.03407417371093
endloop
endfacet
facet normal 4.40619762898108e-017 -1.0 1.16720466992881e-018
outer loop
vertex 3.09807621135332 -3.0 0.0
vertex 6.35689525645584 -3.0 2.03407417371093
vertex 6.09807621135331 -3.0 2.0
endloop
endfacet
facet normal 4.40619762898108e-017 -1.0 1.16720466992881e-018
outer loop
vertex 6.96410161513775 -3.0 2.5
vertex 9.09807621135331 -3.0 6.0
vertex 7.06400203764238 -3.0 2.74118095489748
endloop
endfacet
facet normal 4.40619762898108e-017 -1.0 1.16720466992881e-018
outer loop
vertex 7.06400203764238 -3.0 2.74118095489748
vertex 9.09807621135331 -3.0 6.0
vertex 7.09807621135332 -3.0 3.0
endloop
endfacet
facet normal 4.40619762898108e-017 -1.0 1.16720466992881e-018
outer loop
vertex 7.09807621135332 -3.0 3.0
vertex 9.09807621135331 -3.0 6.0
vertex 7.06400203764238 -3.0 3.25881904510252
endloop
endfacet
facet normal 4.40619762898108e-017 -1.0 1.16720466992881e-018
outer loop
vertex 7.06400203764238 -3.0 3.25881904510252
vertex 9.09807621135331 -3.0 6.0
vertex 6.96410161513775 -3.0 3.5
endloop
endfacet
facet normal 4.40619762898108e-017 -1.0 1.16720466992881e-018
outer loop
vertex 6.96410161513775 -3.0 3.5
vertex 9.09807621135331 -3.0 6.0
vertex 6.80518299253986 -3.0 3.70710678118655
endloop
endfacet
facet normal 4.40619762898108e-017 -1.0 1.16720466992881e-018
outer loop
vertex 6.80518299253986 -3.0 3.70710678118655
vertex 9.09807621135331 -3.0 6.0
vertex 6.59807621135331 -3.0 3.86602540378444
endloop
endfacet
facet normal 4.40619762898108e-017 -1.0 1.16720466992881e-018
outer loop
vertex 6.59807621135331 -3.0 3.86602540378444
vertex 9.09807621135331 -3.0 6.0
vertex 6.35689525645584 -3.0 3.96592582628907
endloop
endfacet
facet normal 4.40619762898108e-017 -1.0 1.16720466992881e-018
outer loop
vertex 6.35689525645584 -3.0 3.96592582628907
vertex 9.09807621135331 -3.0 6.0
vertex 6.09807621135331 -3.0 4.0
endloop
endfacet
facet normal 4.40619762898108e-017 -1.0 1.16720466992881e-018
outer loop
vertex 3.09807621135332 -3.0 0.0
vertex 5.23205080756888 -3.0 2.5
vertex 3.09807621135332 -3.0 6.0
endloop
endfacet
facet normal 4.40619762898108e-017 -1.0 1.16720466992881e-018
outer loop
vertex 5.23205080756888 -3.0 2.5
vertex 3.09807621135332 -3.0 0.0
vertex 5.39096943016677 -3.0 2.29289321881345
endloop
endfacet
facet normal 4.40619762898108e-017 -1.0 1.16720466992881e-018
outer loop
vertex 5.39096943016677 -3.0 2.29289321881345
vertex 3.09807621135332 -3.0 0.0
vertex 5.59807621135332 -3.0 2.13397459621556
endloop
endfacet
facet normal 4.40619762898108e-017 -1.0 1.16720466992881e-018
outer loop
vertex 5.59807621135332 -3.0 2.13397459621556
vertex 3.09807621135332 -3.0 0.0
vertex 5.83925716625079 -3.0 2.03407417371093
endloop
endfacet
facet normal 4.40619762898108e-017 -1.0 1.16720466992881e-018
outer loop
vertex 5.83925716625079 -3.0 2.03407417371093
vertex 3.09807621135332 -3.0 0.0
vertex 6.09807621135331 -3.0 2.0
endloop
endfacet
facet normal 4.40619762898108e-017 -1.0 1.16720466992881e-018
outer loop
vertex 3.09807621135332 -3.0 6.0
vertex 5.23205080756888 -3.0 2.5
vertex 5.13215038506425 -3.0 2.74118095489748
endloop
endfacet
facet normal 4.40619762898108e-017 -1.0 1.16720466992881e-018
outer loop
vertex 3.09807621135332 -3.0 6.0
vertex 5.13215038506425 -3.0 2.74118095489748
vertex 5.09807621135331 -3.0 3.0
endloop
endfacet
facet normal 4.40619762898108e-017 -1.0 1.16720466992881e-018
outer loop
vertex 3.09807621135332 -3.0 6.0
vertex 5.09807621135331 -3.0 3.0
vertex 5.13215038506425 -3.0 3.25881904510252
endloop
endfacet
facet normal 4.40619762898108e-017 -1.0 1.16720466992881e-018
outer loop
vertex 3.09807621135332 -3.0 6.0
vertex 5.13215038506425 -3.0 3.25881904510252
vertex 5.23205080756888 -3.0 3.5
endloop
endfacet
facet normal 4.40619762898108e-017 -1.0 1.16720466992881e-018
outer loop
vertex 3.09807621135332 -3.0 6.0
vertex 5.23205080756888 -3.0 3.5
vertex 5.39096943016677 -3.0 3.70710678118655
endloop
endfacet
facet normal 4.40619762898108e-017 -1.0 1.16720466992881e-018
outer loop
vertex 3.09807621135332 -3.0 6.0
vertex 5.39096943016677 -3.0 3.70710678118655
vertex 5.59807621135331 -3.0 3.86602540378444
endloop
endfacet
facet normal 4.40619762898108e-017 -1.0 1.16720466992881e-018
outer loop
vertex 3.09807621135332 -3.0 6.0
vertex 5.59807621135331 -3.0 3.86602540378444
vertex 5.83925716625079 -3.0 3.96592582628907
endloop
endfacet
facet normal 4.40619762898108e-017 -1.0 1.16720466992881e-018
outer loop
vertex 3.09807621135332 -3.0 6.0
vertex 5.83925716625079 -3.0 3.96592582628907
vertex 6.09807621135331 -3.0 4.0
endloop
endfacet
facet normal 4.40619762898108e-017 -1.0 1.16720466992881e-018
outer loop
vertex 3.09807621135332 -3.0 6.0
vertex 6.09807621135331 -3.0 4.0
vertex 9.09807621135331 -3.0 6.0
endloop
endfacet
facet normal 0.976775803162627 0.214263926865919 -0.0
outer loop
vertex -2.82029109484351 -1.18372137753856 0.0
vertex -2.74452282076004 -1.52913004177182 6.0
vertex -2.74452282076004 -1.52913004177182 0.0
endloop
endfacet
facet normal 0.976775803162627 0.214263926865919 -0.0
outer loop
vertex -2.74452282076004 -1.52913004177182 6.0
vertex -2.82029109484351 -1.18372137753856 0.0
vertex -2.82029109484351 -1.18372137753856 6.0
endloop
endfacet
facet normal 0.0 -1.0 0.0
outer loop
vertex -3.09807621135332 -3.0 6.0
vertex -3.31622731792758 -3.0 0.0
vertex -3.09807621135332 -3.0 0.0
endloop
endfacet
facet normal 0.0 -1.0 0.0
outer loop
vertex -3.31622731792758 -3.0 0.0
vertex -3.09807621135332 -3.0 6.0
vertex -3.31622731792758 -3.0 6.0
endloop
endfacet
facet normal -0.999886366723678 0.0150749341664384 0.0
outer loop
vertex 2.6076835711517 -2.59754516100806 6.0
vertex 2.59807621135332 -2.80656296487638 0.0
vertex 2.59807621135332 -2.80656296487638 6.0
endloop
endfacet
facet normal -0.999886366723678 0.0150749341664384 0.0
outer loop
vertex 2.59807621135332 -2.80656296487638 0.0
vertex 2.6076835711517 -2.59754516100806 6.0
vertex 2.6076835711517 -2.59754516100806 0.0
endloop
endfacet
facet normal -0.999886366723678 0.0150749341664384 0.0
outer loop
vertex 2.6076835711517 -2.59754516100806 0.0
vertex 2.6076835711517 -2.59754516100806 6.0
vertex 2.6076835711517 -2.52847095700044 6.0
endloop
endfacet
facet normal -0.999886366723678 0.0150749341664384 0.0
outer loop
vertex 2.6076835711517 -2.59754516100806 0.0
vertex 2.6076835711517 -2.52847095700044 6.0
vertex 2.6076835711517 -2.52847095700044 0.0
endloop
endfacet
facet normal 0.936541529925062 0.350556646956844 -0.0
outer loop
vertex -3.09807621135332 -0.29289321881345 0.0
vertex -3.00053105034525 -0.55349331046861 6.0
vertex -3.00053105034525 -0.55349331046861 0.0
endloop
endfacet
facet normal 0.936541529925062 0.350556646956844 -0.0
outer loop
vertex -3.00053105034525 -0.55349331046861 6.0
vertex -3.09807621135332 -0.29289321881345 0.0
vertex -3.09807621135332 -0.29289321881345 6.0
endloop
endfacet
facet normal 0.954662456170332 0.297690434476536 -0.0
outer loop
vertex -3.00053105034525 -0.55349331046861 0.0
vertex -2.90673449517077 -0.854289168758924 6.0
vertex -2.90673449517077 -0.854289168758924 0.0
endloop
endfacet
facet normal 0.954662456170332 0.297690434476536 -0.0
outer loop
vertex -2.90673449517077 -0.854289168758924 6.0
vertex -3.00053105034525 -0.55349331046861 0.0
vertex -3.00053105034525 -0.55349331046861 6.0
endloop
endfacet
facet normal -0.99421843400637 0.10737646614562 -6.95445430306464e-020
outer loop
vertex 2.63613644509767 -2.21467743238366 6.0
vertex 2.6076835711517 -2.52847095700044 0.0
vertex 2.6076835711517 -2.52847095700044 6.0
endloop
endfacet
facet normal -0.99421843400637 0.10737646614562 -6.95445430306464e-020
outer loop
vertex 2.6076835711517 -2.52847095700044 0.0
vertex 2.63613644509767 -2.21467743238366 6.0
vertex 2.63613644509767 -2.21467743238366 0.0
endloop
endfacet
facet normal -0.990754961262721 0.135663579244042 0.0
outer loop
vertex 2.68234140520204 -1.87724130019963 6.0
vertex 2.63613644509767 -2.21467743238366 0.0
vertex 2.63613644509767 -2.21467743238366 6.0
endloop
endfacet
facet normal -0.990754961262721 0.135663579244042 0.0
outer loop
vertex 2.63613644509767 -2.21467743238366 0.0
vertex 2.68234140520204 -1.87724130019963 6.0
vertex 2.68234140520204 -1.87724130019963 0.0
endloop
endfacet
facet normal 0.99144486137381 0.130526192220051 -0.0
outer loop
vertex -3.0 3.67394039744206e-016 0.0
vertex -2.89777747886721 -0.776457135307561 6.0
vertex -2.89777747886721 -0.776457135307561 0.0
endloop
endfacet
facet normal 0.99144486137381 0.130526192220051 -0.0
outer loop
vertex -2.89777747886721 -0.776457135307561 6.0
vertex -3.0 3.67394039744206e-016 0.0
vertex -3.0 3.67394039744206e-016 6.0
endloop
endfacet
facet normal 0.99144486137381 -0.130526192220052 0.0
outer loop
vertex -2.8977774788672 0.776457135307563 0.0
vertex -3.0 3.67394039744206e-016 6.0
vertex -3.0 3.67394039744206e-016 0.0
endloop
endfacet
facet normal 0.99144486137381 -0.130526192220052 0.0
outer loop
vertex -3.0 3.67394039744206e-016 6.0
vertex -2.8977774788672 0.776457135307563 0.0
vertex -2.8977774788672 0.776457135307563 6.0
endloop
endfacet
facet normal 0.923879532511287 -0.38268343236509 0.0
outer loop
vertex -2.59807621135332 1.5 0.0
vertex -2.8977774788672 0.776457135307563 6.0
vertex -2.8977774788672 0.776457135307563 0.0
endloop
endfacet
facet normal 0.923879532511287 -0.38268343236509 0.0
outer loop
vertex -2.8977774788672 0.776457135307563 6.0
vertex -2.59807621135332 1.5 0.0
vertex -2.59807621135332 1.5 6.0
endloop
endfacet
facet normal 0.793353340291235 -0.608761429008721 0.0
outer loop
vertex -2.12132034355964 2.12132034355964 0.0
vertex -2.59807621135332 1.5 6.0
vertex -2.59807621135332 1.5 0.0
endloop
endfacet
facet normal 0.793353340291235 -0.608761429008721 0.0
outer loop
vertex -2.59807621135332 1.5 6.0
vertex -2.12132034355964 2.12132034355964 0.0
vertex -2.12132034355964 2.12132034355964 6.0
endloop
endfacet
facet normal 0.60876142900872 -0.793353340291236 0.0
outer loop
vertex -1.5 2.59807621135332 6.0
vertex -2.12132034355964 2.12132034355964 0.0
vertex -1.5 2.59807621135332 0.0
endloop
endfacet
facet normal 0.60876142900872 -0.793353340291236 0.0
outer loop
vertex -2.12132034355964 2.12132034355964 0.0
vertex -1.5 2.59807621135332 6.0
vertex -2.12132034355964 2.12132034355964 6.0
endloop
endfacet
facet normal 0.38268343236509 -0.923879532511287 0.0
outer loop
vertex -0.776457135307562 2.89777747886721 6.0
vertex -1.5 2.59807621135332 0.0
vertex -0.776457135307562 2.89777747886721 0.0
endloop
endfacet
facet normal 0.38268343236509 -0.923879532511287 0.0
outer loop
vertex -1.5 2.59807621135332 0.0
vertex -0.776457135307562 2.89777747886721 6.0
vertex -1.5 2.59807621135332 6.0
endloop
endfacet
facet normal 0.130526192220051 -0.99144486137381 0.0
outer loop
vertex 1.83697019872103e-016 3.0 6.0
vertex -0.776457135307562 2.89777747886721 0.0
vertex 1.83697019872103e-016 3.0 0.0
endloop
endfacet
facet normal 0.130526192220051 -0.99144486137381 0.0
outer loop
vertex -0.776457135307562 2.89777747886721 0.0
vertex 1.83697019872103e-016 3.0 6.0
vertex -0.776457135307562 2.89777747886721 6.0
endloop
endfacet
facet normal -0.130526192220052 -0.99144486137381 -0.0
outer loop
vertex 0.776457135307563 2.89777747886721 6.0
vertex 1.83697019872103e-016 3.0 0.0
vertex 0.776457135307563 2.89777747886721 0.0
endloop
endfacet
facet normal -0.130526192220052 -0.99144486137381 -0.0
outer loop
vertex 1.83697019872103e-016 3.0 0.0
vertex 0.776457135307563 2.89777747886721 6.0
vertex 1.83697019872103e-016 3.0 6.0
endloop
endfacet
facet normal -1.91224440845609e-031 1.27772943939477e-031 1.0
outer loop
vertex -2.6076835711517 -2.59754516100806 6.0
vertex -2.6076835711517 -2.52847095700044 6.0
vertex -2.63613644509767 -2.69134171618255 6.0
endloop
endfacet
facet normal -1.91224440845609e-031 1.27772943939477e-031 1.0
outer loop
vertex -3.00053105034525 -2.99039264020162 6.0
vertex -3.00053105034525 -0.55349331046861 6.0
vertex -3.09807621135332 -3.0 6.0
endloop
endfacet
facet normal -1.91224440845609e-031 1.27772943939477e-031 1.0
outer loop
vertex -3.00053105034525 -0.55349331046861 6.0
vertex -3.00053105034525 -2.99039264020162 6.0
vertex -2.90673449517077 -0.854289168758924 6.0
endloop
endfacet
facet normal -1.91224440845609e-031 1.27772943939477e-031 1.0
outer loop
vertex -2.90673449517077 -0.854289168758924 6.0
vertex -3.00053105034525 -2.99039264020162 6.0
vertex -2.90673449517077 -2.96193976625564 6.0
endloop
endfacet
facet normal -1.91224440845609e-031 1.27772943939477e-031 1.0
outer loop
vertex -2.90673449517077 -0.854289168758924 6.0
vertex -2.90673449517077 -2.96193976625564 6.0
vertex -2.82029109484351 -2.91573480615127 6.0
endloop
endfacet
facet normal -1.91224440845609e-031 1.27772943939477e-031 1.0
outer loop
vertex -2.90673449517077 -0.854289168758924 6.0
vertex -2.82029109484351 -2.91573480615127 6.0
vertex -2.82029109484351 -1.18372137753856 6.0
endloop
endfacet
facet normal -1.91224440845609e-031 1.27772943939477e-031 1.0
outer loop
vertex -2.82029109484351 -1.18372137753856 6.0
vertex -2.82029109484351 -2.91573480615127 6.0
vertex -2.74452282076004 -2.85355339059327 6.0
endloop
endfacet
facet normal -1.91224440845609e-031 1.27772943939477e-031 1.0
outer loop
vertex -2.82029109484351 -1.18372137753856 6.0
vertex -2.74452282076004 -2.85355339059327 6.0
vertex -2.74452282076004 -1.52913004177182 6.0
endloop
endfacet
facet normal -1.91224440845609e-031 1.27772943939477e-031 1.0
outer loop
vertex -2.74452282076004 -1.52913004177182 6.0
vertex -2.74452282076004 -2.85355339059327 6.0
vertex -2.68234140520204 -2.7777851165098 6.0
endloop
endfacet
facet normal -1.91224440845609e-031 1.27772943939477e-031 1.0
outer loop
vertex -2.74452282076004 -1.52913004177182 6.0
vertex -2.68234140520204 -2.7777851165098 6.0
vertex -2.68234140520204 -1.87724130019963 6.0
endloop
endfacet
facet normal -1.91224440845609e-031 1.27772943939477e-031 1.0
outer loop
vertex -2.68234140520204 -1.87724130019963 6.0
vertex -2.68234140520204 -2.7777851165098 6.0
vertex -2.63613644509767 -2.69134171618255 6.0
endloop
endfacet
facet normal -1.91224440845609e-031 1.27772943939477e-031 1.0
outer loop
vertex -2.68234140520204 -1.87724130019963 6.0
vertex -2.63613644509767 -2.69134171618255 6.0
vertex -2.63613644509767 -2.21467743238366 6.0
endloop
endfacet
facet normal -1.91224440845609e-031 1.27772943939477e-031 1.0
outer loop
vertex -2.63613644509767 -2.21467743238366 6.0
vertex -2.63613644509767 -2.69134171618255 6.0
vertex -2.6076835711517 -2.52847095700044 6.0
endloop
endfacet
facet normal -1.91224440845609e-031 1.27772943939477e-031 1.0
outer loop
vertex -2.63613644509767 -2.21467743238366 6.0
vertex -2.6076835711517 -2.52847095700044 6.0
vertex -2.59807621135332 -2.5 6.0
endloop
endfacet
facet normal -1.91224440845609e-031 1.27772943939477e-031 1.0
outer loop
vertex -2.89777747886721 -0.776457135307561 6.0
vertex -3.0 3.67394039744206e-016 6.0
vertex -3.00053105034525 -0.55349331046861 6.0
endloop
endfacet
facet normal -1.91224440845609e-031 1.27772943939477e-031 1.0
outer loop
vertex 3.00053105034525 -0.553493310468614 6.0
vertex 3.0 0.0 6.0
vertex 2.8977774788672 -0.776457135307565 6.0
endloop
endfacet
facet normal -1.91224440845609e-031 1.27772943939477e-031 1.0
outer loop
vertex 2.63613644509767 -2.69134171618255 6.0
vertex 2.6076835711517 -2.52847095700044 6.0
vertex 2.6076835711517 -2.59754516100806 6.0
endloop
endfacet
facet normal -1.91224440845609e-031 1.27772943939477e-031 1.0
outer loop
vertex 2.6076835711517 -2.52847095700044 6.0
vertex 2.63613644509767 -2.69134171618255 6.0
vertex 2.63613644509767 -2.21467743238366 6.0
endloop
endfacet
facet normal -1.91224440845609e-031 1.27772943939477e-031 1.0
outer loop
vertex 2.63613644509767 -2.21467743238366 6.0
vertex 2.63613644509767 -2.69134171618255 6.0
vertex 2.68234140520204 -2.7777851165098 6.0
endloop
endfacet
facet normal -1.91224440845609e-031 1.27772943939477e-031 1.0
outer loop
vertex 2.63613644509767 -2.21467743238366 6.0
vertex 2.68234140520204 -2.7777851165098 6.0
vertex 2.68234140520204 -1.87724130019963 6.0
endloop
endfacet
facet normal -1.91224440845609e-031 1.27772943939477e-031 1.0
outer loop
vertex 2.68234140520204 -1.87724130019963 6.0
vertex 2.68234140520204 -2.7777851165098 6.0
vertex 2.74452282076004 -2.85355339059327 6.0
endloop
endfacet
facet normal -1.91224440845609e-031 1.27772943939477e-031 1.0
outer loop
vertex 2.68234140520204 -1.87724130019963 6.0
vertex 2.74452282076004 -2.85355339059327 6.0
vertex 2.74452282076004 -1.52913004177182 6.0
endloop
endfacet
facet normal -1.91224440845609e-031 1.27772943939477e-031 1.0
outer loop
vertex 2.74452282076004 -1.52913004177182 6.0
vertex 2.74452282076004 -2.85355339059327 6.0
vertex 2.82029109484351 -2.91573480615127 6.0
endloop
endfacet
facet normal -1.91224440845609e-031 1.27772943939477e-031 1.0
outer loop
vertex 2.74452282076004 -1.52913004177182 6.0
vertex 2.82029109484351 -2.91573480615127 6.0
vertex 2.82029109484351 -1.18372137753856 6.0
endloop
endfacet
facet normal -1.91224440845609e-031 1.27772943939477e-031 1.0
outer loop
vertex 2.82029109484351 -1.18372137753856 6.0
vertex 2.82029109484351 -2.91573480615127 6.0
vertex 2.90673449517077 -2.96193976625564 6.0
endloop
endfacet
facet normal -1.91224440845609e-031 1.27772943939477e-031 1.0
outer loop
vertex 2.82029109484351 -1.18372137753856 6.0
vertex 2.90673449517077 -2.96193976625564 6.0
vertex 2.90673449517077 -0.854289168758927 6.0
endloop
endfacet
facet normal -1.91224440845609e-031 1.27772943939477e-031 1.0
outer loop
vertex 2.90673449517077 -0.854289168758927 6.0
vertex 2.90673449517077 -2.96193976625564 6.0
vertex 3.00053105034525 -2.99039264020162 6.0
endloop
endfacet
facet normal -1.91224440845609e-031 1.27772943939477e-031 1.0
outer loop
vertex 2.90673449517077 -0.854289168758927 6.0
vertex 3.00053105034525 -2.99039264020162 6.0
vertex 3.00053105034525 -0.553493310468614 6.0
endloop
endfacet
facet normal -1.91224440845609e-031 1.27772943939477e-031 1.0
outer loop
vertex 3.00053105034525 -0.553493310468614 6.0
vertex 3.00053105034525 -2.99039264020162 6.0
vertex 3.09807621135332 -3.0 6.0
endloop
endfacet
facet normal -1.91224440845609e-031 1.27772943939477e-031 1.0
outer loop
vertex -4.82962913144534 -1.2940952255126 6.0
vertex -4.82962913144534 1.2940952255126 6.0
vertex -5.0 4.89858719658941e-016 6.0
endloop
endfacet
facet normal -1.91224440845609e-031 1.27772943939477e-031 1.0
outer loop
vertex -4.82962913144534 1.2940952255126 6.0
vertex -4.82962913144534 -1.2940952255126 6.0
vertex -4.74434058129529 -1.5 6.0
endloop
endfacet
facet normal -1.91224440845609e-031 1.27772943939477e-031 1.0
outer loop
vertex -4.82962913144534 1.2940952255126 6.0
vertex -4.74434058129529 -1.5 6.0
vertex -4.33012701892219 2.5 6.0
endloop
endfacet
facet normal -1.91224440845609e-031 1.27772943939477e-031 1.0
outer loop
vertex -4.33012701892219 2.5 6.0
vertex -4.74434058129529 -1.5 6.0
vertex -4.33012701892219 -2.5 6.0
endloop
endfacet
facet normal -1.91224440845609e-031 1.27772943939477e-031 1.0
outer loop
vertex -4.33012701892219 2.5 6.0
vertex -4.33012701892219 -2.5 6.0
vertex -4.24316817233662 -2.59754516100806 6.0
endloop
endfacet
facet normal -1.91224440845609e-031 1.27772943939477e-031 1.0
outer loop
vertex -4.33012701892219 2.5 6.0
vertex -4.24316817233662 -2.59754516100806 6.0
vertex -3.53553390593274 3.53553390593274 6.0
endloop
endfacet
facet normal -1.91224440845609e-031 1.27772943939477e-031 1.0
outer loop
vertex -3.53553390593274 3.53553390593274 6.0
vertex -4.24316817233662 -2.59754516100806 6.0
vertex -4.13533148146357 -2.69134171618255 6.0
endloop
endfacet
facet normal -1.91224440845609e-031 1.27772943939477e-031 1.0
outer loop
vertex -3.53553390593274 3.53553390593274 6.0
vertex -4.13533148146357 -2.69134171618255 6.0
vertex -4.01076104985779 -2.7777851165098 6.0
endloop
endfacet
facet normal -1.91224440845609e-031 1.27772943939477e-031 1.0
outer loop
vertex -3.53553390593274 3.53553390593274 6.0
vertex -4.01076104985779 -2.7777851165098 6.0
vertex -3.87424404934599 -2.85355339059327 6.0
endloop
endfacet
facet normal -1.91224440845609e-031 1.27772943939477e-031 1.0
outer loop
vertex -3.53553390593274 3.53553390593274 6.0
vertex -3.87424404934599 -2.85355339059327 6.0
vertex -3.73102675169822 -2.91573480615127 6.0
endloop
endfacet
facet normal -1.91224440845609e-031 1.27772943939477e-031 1.0
outer loop
vertex -3.53553390593274 3.53553390593274 6.0
vertex -3.73102675169822 -2.91573480615127 6.0
vertex -3.58661291734589 -2.96193976625564 6.0
endloop
endfacet
facet normal -1.91224440845609e-031 1.27772943939477e-031 1.0
outer loop
vertex -3.53553390593274 3.53553390593274 6.0
vertex -3.58661291734589 -2.96193976625564 6.0
vertex -3.44655228895496 -2.99039264020162 6.0
endloop
endfacet
facet normal -1.91224440845609e-031 1.27772943939477e-031 1.0
outer loop
vertex -3.53553390593274 3.53553390593274 6.0
vertex -3.44655228895496 -2.99039264020162 6.0
vertex -2.5 4.33012701892219 6.0
endloop
endfacet
facet normal -1.91224440845609e-031 1.27772943939477e-031 1.0
outer loop
vertex -2.5 4.33012701892219 6.0
vertex -3.44655228895496 -2.99039264020162 6.0
vertex -3.0 3.67394039744206e-016 6.0
endloop
endfacet
facet normal -1.91224440845609e-031 1.27772943939477e-031 1.0
outer loop
vertex -3.0 3.67394039744206e-016 6.0
vertex -3.44655228895496 -2.99039264020162 6.0
vertex -3.31622731792758 -3.0 6.0
endloop
endfacet
facet normal -1.91224440845609e-031 1.27772943939477e-031 1.0
outer loop
vertex -3.0 3.67394039744206e-016 6.0
vertex -3.31622731792758 -3.0 6.0
vertex -3.09807621135332 -3.0 6.0
endloop
endfacet
facet normal -1.91224440845609e-031 1.27772943939477e-031 1.0
outer loop
vertex -3.0 3.67394039744206e-016 6.0
vertex -3.09807621135332 -3.0 6.0
vertex -3.00053105034525 -0.55349331046861 6.0
endloop
endfacet
facet normal -1.91224440845609e-031 1.27772943939477e-031 1.0
outer loop
vertex -2.5 4.33012701892219 6.0
vertex -3.0 3.67394039744206e-016 6.0
vertex -2.8977774788672 0.776457135307563 6.0
endloop
endfacet
facet normal -1.91224440845609e-031 1.27772943939477e-031 1.0
outer loop
vertex -2.5 4.33012701892219 6.0
vertex -2.8977774788672 0.776457135307563 6.0
vertex -2.59807621135332 1.5 6.0
endloop
endfacet
facet normal -1.91224440845609e-031 1.27772943939477e-031 1.0
outer loop
vertex -2.5 4.33012701892219 6.0
vertex -2.59807621135332 1.5 6.0
vertex -2.12132034355964 2.12132034355964 6.0
endloop
endfacet
facet normal -1.91224440845609e-031 1.27772943939477e-031 1.0
outer loop
vertex -2.5 4.33012701892219 6.0
vertex -2.12132034355964 2.12132034355964 6.0
vertex -1.2940952255126 4.82962913144534 6.0
endloop
endfacet
facet normal -1.91224440845609e-031 1.27772943939477e-031 1.0
outer loop
vertex -1.2940952255126 4.82962913144534 6.0
vertex -2.12132034355964 2.12132034355964 6.0
vertex -1.5 2.59807621135332 6.0
endloop
endfacet
facet normal -1.91224440845609e-031 1.27772943939477e-031 1.0
outer loop
vertex -1.2940952255126 4.82962913144534 6.0
vertex -1.5 2.59807621135332 6.0
vertex -0.776457135307562 2.89777747886721 6.0
endloop
endfacet
facet normal -1.91224440845609e-031 1.27772943939477e-031 1.0
outer loop
vertex -1.2940952255126 4.82962913144534 6.0
vertex -0.776457135307562 2.89777747886721 6.0
vertex 1.83697019872103e-016 5.0 6.0
endloop
endfacet
facet normal -1.91224440845609e-031 1.27772943939477e-031 1.0
outer loop
vertex 1.83697019872103e-016 5.0 6.0
vertex -0.776457135307562 2.89777747886721 6.0
vertex 1.83697019872103e-016 3.0 6.0
endloop
endfacet
facet normal -1.91224440845609e-031 1.27772943939477e-031 1.0
outer loop
vertex 1.83697019872103e-016 5.0 6.0
vertex 1.83697019872103e-016 3.0 6.0
vertex 0.776457135307563 2.89777747886721 6.0
endloop
endfacet
facet normal -1.91224440845609e-031 1.27772943939477e-031 1.0
outer loop
vertex 1.83697019872103e-016 5.0 6.0
vertex 0.776457135307563 2.89777747886721 6.0
vertex 9.09807621135332 5.0 6.0
endloop
endfacet
facet normal -1.91224440845609e-031 1.27772943939477e-031 1.0
outer loop
vertex 9.09807621135332 5.0 6.0
vertex 0.776457135307563 2.89777747886721 6.0
vertex 1.5 2.59807621135332 6.0
endloop
endfacet
facet normal -1.91224440845609e-031 1.27772943939477e-031 1.0
outer loop
vertex 9.09807621135332 5.0 6.0
vertex 1.5 2.59807621135332 6.0
vertex 2.12132034355964 2.12132034355964 6.0
endloop
endfacet
facet normal -1.91224440845609e-031 1.27772943939477e-031 1.0
outer loop
vertex 9.09807621135332 5.0 6.0
vertex 2.12132034355964 2.12132034355964 6.0
vertex 2.59807621135332 1.5 6.0
endloop
endfacet
facet normal -1.91224440845609e-031 1.27772943939477e-031 1.0
outer loop
vertex 9.09807621135332 5.0 6.0
vertex 2.59807621135332 1.5 6.0
vertex 2.89777747886721 0.776457135307562 6.0
endloop
endfacet
facet normal -1.91224440845609e-031 1.27772943939477e-031 1.0
outer loop
vertex 9.09807621135332 5.0 6.0
vertex 2.89777747886721 0.776457135307562 6.0
vertex 3.0 0.0 6.0
endloop
endfacet
facet normal -1.91224440845609e-031 1.27772943939477e-031 1.0
outer loop
vertex 9.09807621135332 5.0 6.0
vertex 3.0 0.0 6.0
vertex 3.00053105034525 -0.553493310468614 6.0
endloop
endfacet
facet normal -1.91224440845609e-031 1.27772943939477e-031 1.0
outer loop
vertex 9.09807621135332 5.0 6.0
vertex 3.00053105034525 -0.553493310468614 6.0
vertex 3.09807621135332 -3.0 6.0
endloop
endfacet
facet normal -1.91224440845609e-031 1.27772943939477e-031 1.0
outer loop
vertex 9.09807621135332 5.0 6.0
vertex 3.09807621135332 -3.0 6.0
vertex 9.09807621135331 -3.0 6.0
endloop
endfacet
facet normal -1.91224440845609e-031 1.27772943939477e-031 1.0
outer loop
vertex 9.09807621135332 5.0 6.0
vertex 9.09807621135331 -3.0 6.0
vertex 9.29316653336944 -2.98078528040323 6.0
endloop
endfacet
facet normal -1.91224440845609e-031 1.27772943939477e-031 1.0
outer loop
vertex 9.09807621135332 5.0 6.0
vertex 9.29316653336944 -2.98078528040323 6.0
vertex 9.29316653336944 4.98078528040323 6.0
endloop
endfacet
facet normal -1.91224440845609e-031 1.27772943939477e-031 1.0
outer loop
vertex 9.29316653336944 4.98078528040323 6.0
vertex 9.29316653336944 -2.98078528040323 6.0
vertex 9.4807596437184 -2.92387953251129 6.0
endloop
endfacet
facet normal -1.91224440845609e-031 1.27772943939477e-031 1.0
outer loop
vertex 9.29316653336944 4.98078528040323 6.0
vertex 9.4807596437184 -2.92387953251129 6.0
vertex 9.48075964371841 4.92387953251129 6.0
endloop
endfacet
facet normal -1.91224440845609e-031 1.27772943939477e-031 1.0
outer loop
vertex 9.48075964371841 4.92387953251129 6.0
vertex 9.4807596437184 -2.92387953251129 6.0
vertex 9.65364644437292 -2.83146961230254 6.0
endloop
endfacet
facet normal -1.91224440845609e-031 1.27772943939477e-031 1.0
outer loop
vertex 9.48075964371841 4.92387953251129 6.0
vertex 9.65364644437292 -2.83146961230254 6.0
vertex 9.65364644437292 4.83146961230255 6.0
endloop
endfacet
facet normal -1.91224440845609e-031 1.27772943939477e-031 1.0
outer loop
vertex 9.65364644437292 4.83146961230255 6.0
vertex 9.65364644437292 -2.83146961230254 6.0
vertex 9.80518299253986 -2.70710678118655 6.0
endloop
endfacet
facet normal -1.91224440845609e-031 1.27772943939477e-031 1.0
outer loop
vertex 9.65364644437292 4.83146961230255 6.0
vertex 9.80518299253986 -2.70710678118655 6.0
vertex 9.80518299253986 4.70710678118655 6.0
endloop
endfacet
facet normal -1.91224440845609e-031 1.27772943939477e-031 1.0
outer loop
vertex 9.80518299253986 4.70710678118655 6.0
vertex 9.80518299253986 -2.70710678118655 6.0
vertex 9.92954582365586 -2.5555702330196 6.0
endloop
endfacet
facet normal -1.91224440845609e-031 1.27772943939477e-031 1.0
outer loop
vertex 9.80518299253986 4.70710678118655 6.0
vertex 9.92954582365586 -2.5555702330196 6.0
vertex 9.92954582365586 4.5555702330196 6.0
endloop
endfacet
facet normal -1.91224440845609e-031 1.27772943939477e-031 1.0
outer loop
vertex 9.92954582365586 4.5555702330196 6.0
vertex 9.92954582365586 -2.5555702330196 6.0
vertex 10.0219557438646 -2.38268343236509 6.0
endloop
endfacet
facet normal -1.91224440845609e-031 1.27772943939477e-031 1.0
outer loop
vertex 9.92954582365586 4.5555702330196 6.0
vertex 10.0219557438646 -2.38268343236509 6.0
vertex 10.0219557438646 4.38268343236509 6.0
endloop
endfacet
facet normal -1.91224440845609e-031 1.27772943939477e-031 1.0
outer loop
vertex 10.0219557438646 4.38268343236509 6.0
vertex 10.0219557438646 -2.38268343236509 6.0
vertex 10.0788614917565 -2.19509032201613 6.0
endloop
endfacet
facet normal -1.91224440845609e-031 1.27772943939477e-031 1.0
outer loop
vertex 10.0219557438646 4.38268343236509 6.0
vertex 10.0788614917565 -2.19509032201613 6.0
vertex 10.0788614917565 4.19509032201613 6.0
endloop
endfacet
facet normal -1.91224440845609e-031 1.27772943939477e-031 1.0
outer loop
vertex 10.0788614917565 4.19509032201613 6.0
vertex 10.0788614917565 -2.19509032201613 6.0
vertex 10.0980762113533 -2.0 6.0
endloop
endfacet
facet normal -1.91224440845609e-031 1.27772943939477e-031 1.0
outer loop
vertex 10.0788614917565 4.19509032201613 6.0
vertex 10.0980762113533 -2.0 6.0
vertex 10.0980762113533 4.0 6.0
endloop
endfacet
facet normal -0.398257568100172 -0.917273628450604 0.0
outer loop
vertex -3.73102675169822 -2.91573480615127 6.0
vertex -3.87424404934599 -2.85355339059327 0.0
vertex -3.73102675169822 -2.91573480615127 0.0
endloop
endfacet
facet normal -0.398257568100172 -0.917273628450604 0.0
outer loop
vertex -3.87424404934599 -2.85355339059327 0.0
vertex -3.73102675169822 -2.91573480615127 6.0
vertex -3.87424404934599 -2.85355339059327 6.0
endloop
endfacet
facet normal -0.30473105547067 -0.952438440967043 0.0
outer loop
vertex -3.58661291734589 -2.96193976625564 6.0
vertex -3.73102675169822 -2.91573480615127 0.0
vertex -3.58661291734589 -2.96193976625564 0.0
endloop
endfacet
facet normal -0.30473105547067 -0.952438440967043 0.0
outer loop
vertex -3.73102675169822 -2.91573480615127 0.0
vertex -3.58661291734589 -2.96193976625564 6.0
vertex -3.73102675169822 -2.91573480615127 6.0
endloop
endfacet
facet normal -0.199080478187361 -0.979983144347234 0.0
outer loop
vertex -3.44655228895496 -2.99039264020162 6.0
vertex -3.58661291734589 -2.96193976625564 0.0
vertex -3.44655228895496 -2.99039264020162 0.0
endloop
endfacet
facet normal -0.199080478187361 -0.979983144347234 0.0
outer loop
vertex -3.58661291734589 -2.96193976625564 0.0
vertex -3.44655228895496 -2.99039264020162 6.0
vertex -3.58661291734589 -2.96193976625564 6.0
endloop
endfacet
facet normal -0.0735189921841843 -0.997293817181387 0.0
outer loop
vertex -3.31622731792758 -3.0 6.0
vertex -3.44655228895496 -2.99039264020162 0.0
vertex -3.31622731792758 -3.0 0.0
endloop
endfacet
facet normal -0.0735189921841843 -0.997293817181387 0.0
outer loop
vertex -3.44655228895496 -2.99039264020162 0.0
vertex -3.31622731792758 -3.0 6.0
vertex -3.44655228895496 -2.99039264020162 6.0
endloop
endfacet
facet normal -0.746450854371326 -0.665440547313069 0.0
outer loop
vertex -4.33012701892219 -2.5 6.0
vertex -4.24316817233662 -2.59754516100806 0.0
vertex -4.24316817233662 -2.59754516100806 6.0
endloop
endfacet
facet normal -0.746450854371326 -0.665440547313069 0.0
outer loop
vertex -4.24316817233662 -2.59754516100806 0.0
vertex -4.33012701892219 -2.5 6.0
vertex -4.33012701892219 -2.5 0.0
endloop
endfacet
facet normal -0.936541529925061 0.350556646956845 0.0
outer loop
vertex 3.09807621135332 -0.292893218813456 6.0
vertex 3.00053105034525 -0.553493310468614 0.0
vertex 3.00053105034525 -0.553493310468614 6.0
endloop
endfacet
facet normal -0.936541529925061 0.350556646956845 0.0
outer loop
vertex 3.00053105034525 -0.553493310468614 0.0
vertex 3.09807621135332 -0.292893218813456 6.0
vertex 3.09807621135332 -0.292893218813456 0.0
endloop
endfacet
facet normal -0.954662456170332 0.297690434476536 0.0
outer loop
vertex 3.00053105034525 -0.553493310468614 6.0
vertex 2.90673449517077 -0.854289168758927 0.0
vertex 2.90673449517077 -0.854289168758927 6.0
endloop
endfacet
facet normal -0.954662456170332 0.297690434476536 0.0
outer loop
vertex 2.90673449517077 -0.854289168758927 0.0
vertex 3.00053105034525 -0.553493310468614 6.0
vertex 3.00053105034525 -0.553493310468614 0.0
endloop
endfacet
facet normal -0.656280384607907 -0.754517101714002 0.0
outer loop
vertex -4.13533148146357 -2.69134171618255 6.0
vertex -4.24316817233662 -2.59754516100806 0.0
vertex -4.13533148146357 -2.69134171618255 0.0
endloop
endfacet
facet normal -0.656280384607907 -0.754517101714002 0.0
outer loop
vertex -4.24316817233662 -2.59754516100806 0.0
vertex -4.13533148146357 -2.69134171618255 6.0
vertex -4.24316817233662 -2.59754516100806 6.0
endloop
endfacet
facet normal -0.967254434596684 0.253808705037967 0.0
outer loop
vertex 2.90673449517077 -0.854289168758927 6.0
vertex 2.82029109484351 -1.18372137753856 0.0
vertex 2.82029109484351 -1.18372137753856 6.0
endloop
endfacet
facet normal -0.967254434596684 0.253808705037967 0.0
outer loop
vertex 2.82029109484351 -1.18372137753856 0.0
vertex 2.90673449517077 -0.854289168758927 6.0
vertex 2.90673449517077 -0.854289168758927 0.0
endloop
endfacet
facet normal -0.570111705771319 -0.821567187114065 0.0
outer loop
vertex -4.01076104985779 -2.7777851165098 6.0
vertex -4.13533148146357 -2.69134171618255 0.0
vertex -4.01076104985779 -2.7777851165098 0.0
endloop
endfacet
facet normal -0.570111705771319 -0.821567187114065 0.0
outer loop
vertex -4.13533148146357 -2.69134171618255 0.0
vertex -4.01076104985779 -2.7777851165098 6.0
vertex -4.13533148146357 -2.69134171618255 6.0
endloop
endfacet
facet normal -0.976775803162627 0.21426392686592 0.0
outer loop
vertex 2.82029109484351 -1.18372137753856 6.0
vertex 2.74452282076004 -1.52913004177182 0.0
vertex 2.74452282076004 -1.52913004177182 6.0
endloop
endfacet
facet normal -0.976775803162627 0.21426392686592 0.0
outer loop
vertex 2.74452282076004 -1.52913004177182 0.0
vertex 2.82029109484351 -1.18372137753856 6.0
vertex 2.82029109484351 -1.18372137753856 0.0
endloop
endfacet
facet normal -0.48527825082215 -0.874359776796139 0.0
outer loop
vertex -3.87424404934599 -2.85355339059327 6.0
vertex -4.01076104985779 -2.7777851165098 0.0
vertex -3.87424404934599 -2.85355339059327 0.0
endloop
endfacet
facet normal -0.48527825082215 -0.874359776796139 0.0
outer loop
vertex -4.01076104985779 -2.7777851165098 0.0
vertex -3.87424404934599 -2.85355339059327 6.0
vertex -4.01076104985779 -2.7777851165098 6.0
endloop
endfacet
facet normal -0.984418427359298 0.175841860418523 0.0
outer loop
vertex 2.74452282076004 -1.52913004177182 6.0
vertex 2.68234140520204 -1.87724130019963 0.0
vertex 2.68234140520204 -1.87724130019963 6.0
endloop
endfacet
facet normal -0.984418427359298 0.175841860418523 0.0
outer loop
vertex 2.68234140520204 -1.87724130019963 0.0
vertex 2.74452282076004 -1.52913004177182 6.0
vertex 2.74452282076004 -1.52913004177182 0.0
endloop
endfacet
facet normal -0.130526192220052 0.99144486137381 0.0
outer loop
vertex -1.2940952255126 4.82962913144534 6.0
vertex 1.83697019872103e-016 5.0 0.0
vertex -1.2940952255126 4.82962913144534 0.0
endloop
endfacet
facet normal -0.130526192220052 0.99144486137381 0.0
outer loop
vertex 1.83697019872103e-016 5.0 0.0
vertex -1.2940952255126 4.82962913144534 6.0
vertex 1.83697019872103e-016 5.0 6.0
endloop
endfacet
facet normal -0.382683432365089 0.923879532511287 0.0
outer loop
vertex -2.5 4.33012701892219 6.0
vertex -1.2940952255126 4.82962913144534 0.0
vertex -2.5 4.33012701892219 0.0
endloop
endfacet
facet normal -0.382683432365089 0.923879532511287 0.0
outer loop
vertex -1.2940952255126 4.82962913144534 0.0
vertex -2.5 4.33012701892219 6.0
vertex -1.2940952255126 4.82962913144534 6.0
endloop
endfacet
facet normal -0.608761429008721 0.793353340291235 0.0
outer loop
vertex -3.53553390593274 3.53553390593274 6.0
vertex -2.5 4.33012701892219 0.0
vertex -3.53553390593274 3.53553390593274 0.0
endloop
endfacet
facet normal -0.608761429008721 0.793353340291235 0.0
outer loop
vertex -2.5 4.33012701892219 0.0
vertex -3.53553390593274 3.53553390593274 6.0
vertex -2.5 4.33012701892219 6.0
endloop
endfacet
facet normal -0.793353340291235 0.608761429008721 0.0
outer loop
vertex -3.53553390593274 3.53553390593274 6.0
vertex -4.33012701892219 2.5 0.0
vertex -4.33012701892219 2.5 6.0
endloop
endfacet
facet normal -0.793353340291235 0.608761429008721 0.0
outer loop
vertex -4.33012701892219 2.5 0.0
vertex -3.53553390593274 3.53553390593274 6.0
vertex -3.53553390593274 3.53553390593274 0.0
endloop
endfacet
facet normal -0.923879532511287 0.38268343236509 0.0
outer loop
vertex -4.33012701892219 2.5 6.0
vertex -4.82962913144534 1.2940952255126 0.0
vertex -4.82962913144534 1.2940952255126 6.0
endloop
endfacet
facet normal -0.923879532511287 0.38268343236509 0.0
outer loop
vertex -4.82962913144534 1.2940952255126 0.0
vertex -4.33012701892219 2.5 6.0
vertex -4.33012701892219 2.5 0.0
endloop
endfacet
facet normal -0.99144486137381 0.130526192220052 0.0
outer loop
vertex -4.82962913144534 1.2940952255126 6.0
vertex -5.0 4.89858719658941e-016 0.0
vertex -5.0 4.89858719658941e-016 6.0
endloop
endfacet
facet normal -0.99144486137381 0.130526192220052 0.0
outer loop
vertex -5.0 4.89858719658941e-016 0.0
vertex -4.82962913144534 1.2940952255126 6.0
vertex -4.82962913144534 1.2940952255126 0.0
endloop
endfacet
facet normal -0.99144486137381 -0.130526192220052 -0.0
outer loop
vertex -5.0 4.89858719658941e-016 6.0
vertex -4.82962913144534 -1.2940952255126 0.0
vertex -4.82962913144534 -1.2940952255126 6.0
endloop
endfacet
facet normal -0.99144486137381 -0.130526192220052 -0.0
outer loop
vertex -4.82962913144534 -1.2940952255126 0.0
vertex -5.0 4.89858719658941e-016 6.0
vertex -5.0 4.89858719658941e-016 0.0
endloop
endfacet
facet normal -0.923879532511288 -0.382683432365088 -0.0
outer loop
vertex -4.82962913144534 -1.2940952255126 6.0
vertex -4.74434058129529 -1.5 0.0
vertex -4.74434058129529 -1.5 6.0
endloop
endfacet
facet normal -0.923879532511288 -0.382683432365088 -0.0
outer loop
vertex -4.74434058129529 -1.5 0.0
vertex -4.82962913144534 -1.2940952255126 6.0
vertex -4.82962913144534 -1.2940952255126 0.0
endloop
endfacet
facet normal -0.923879532511287 -0.38268343236509 0.0
outer loop
vertex -4.74434058129529 -1.5 6.0
vertex -4.33012701892219 -2.5 0.0
vertex -4.33012701892219 -2.5 6.0
endloop
endfacet
facet normal -0.923879532511287 -0.38268343236509 0.0
outer loop
vertex -4.33012701892219 -2.5 0.0
vertex -4.74434058129529 -1.5 6.0
vertex -4.74434058129529 -1.5 0.0
endloop
endfacet
facet normal -7.74879880383096e-017 1.0 -0.0
outer loop
vertex 1.83697019872103e-016 5.0 0.0
vertex 5.59807621135332 5.0 2.13397459621556
vertex 9.09807621135332 5.0 0.0
endloop
endfacet
facet normal -7.74879880383096e-017 1.0 -0.0
outer loop
vertex 5.59807621135332 5.0 2.13397459621556
vertex 1.83697019872103e-016 5.0 0.0
vertex 1.83697019872103e-016 5.0 6.0
endloop
endfacet
facet normal -7.74879880383096e-017 1.0 -0.0
outer loop
vertex 9.09807621135332 5.0 0.0
vertex 5.59807621135332 5.0 2.13397459621556
vertex 5.83925716625079 5.0 2.03407417371093
endloop
endfacet
facet normal -7.74879880383096e-017 1.0 -0.0
outer loop
vertex 9.09807621135332 5.0 0.0
vertex 5.83925716625079 5.0 2.03407417371093
vertex 6.09807621135331 5.0 2.0
endloop
endfacet
facet normal -7.74879880383096e-017 1.0 -0.0
outer loop
vertex 5.59807621135332 5.0 2.13397459621556
vertex 1.83697019872103e-016 5.0 6.0
vertex 5.39096943016677 5.0 2.29289321881345
endloop
endfacet
facet normal -7.74879880383096e-017 1.0 -0.0
outer loop
vertex 5.39096943016677 5.0 2.29289321881345
vertex 1.83697019872103e-016 5.0 6.0
vertex 5.23205080756888 5.0 2.5
endloop
endfacet
facet normal -7.74879880383096e-017 1.0 -0.0
outer loop
vertex 5.23205080756888 5.0 2.5
vertex 1.83697019872103e-016 5.0 6.0
vertex 5.13215038506425 5.0 2.74118095489748
endloop
endfacet
facet normal -7.74879880383096e-017 1.0 -0.0
outer loop
vertex 5.13215038506425 5.0 2.74118095489748
vertex 1.83697019872103e-016 5.0 6.0
vertex 5.09807621135331 5.0 3.0
endloop
endfacet
facet normal -7.74879880383096e-017 1.0 -0.0
outer loop
vertex 5.09807621135331 5.0 3.0
vertex 1.83697019872103e-016 5.0 6.0
vertex 5.13215038506425 5.0 3.25881904510252
endloop
endfacet
facet normal -7.74879880383096e-017 1.0 -0.0
outer loop
vertex 5.13215038506425 5.0 3.25881904510252
vertex 1.83697019872103e-016 5.0 6.0
vertex 5.23205080756888 5.0 3.5
endloop
endfacet
facet normal -7.74879880383096e-017 1.0 -0.0
outer loop
vertex 5.23205080756888 5.0 3.5
vertex 1.83697019872103e-016 5.0 6.0
vertex 5.39096943016677 5.0 3.70710678118655
endloop
endfacet
facet normal -7.74879880383096e-017 1.0 -0.0
outer loop
vertex 5.39096943016677 5.0 3.70710678118655
vertex 1.83697019872103e-016 5.0 6.0
vertex 5.59807621135331 5.0 3.86602540378444
endloop
endfacet
facet normal -7.74879880383096e-017 1.0 -0.0
outer loop
vertex 5.59807621135331 5.0 3.86602540378444
vertex 1.83697019872103e-016 5.0 6.0
vertex 5.83925716625079 5.0 3.96592582628907
endloop
endfacet
facet normal -7.74879880383096e-017 1.0 -0.0
outer loop
vertex 5.83925716625079 5.0 3.96592582628907
vertex 1.83697019872103e-016 5.0 6.0
vertex 6.09807621135331 5.0 4.0
endloop
endfacet
facet normal -7.74879880383096e-017 1.0 -0.0
outer loop
vertex 9.09807621135332 5.0 0.0
vertex 6.96410161513775 5.0 2.5
vertex 9.09807621135332 5.0 6.0
endloop
endfacet
facet normal -7.74879880383096e-017 1.0 -0.0
outer loop
vertex 6.96410161513775 5.0 2.5
vertex 9.09807621135332 5.0 0.0
vertex 6.80518299253986 5.0 2.29289321881345
endloop
endfacet
facet normal -7.74879880383096e-017 1.0 -0.0
outer loop
vertex 6.80518299253986 5.0 2.29289321881345
vertex 9.09807621135332 5.0 0.0
vertex 6.59807621135331 5.0 2.13397459621556
endloop
endfacet
facet normal -7.74879880383096e-017 1.0 -0.0
outer loop
vertex 6.59807621135331 5.0 2.13397459621556
vertex 9.09807621135332 5.0 0.0
vertex 6.35689525645584 5.0 2.03407417371093
endloop
endfacet
facet normal -7.74879880383096e-017 1.0 -0.0
outer loop
vertex 6.35689525645584 5.0 2.03407417371093
vertex 9.09807621135332 5.0 0.0
vertex 6.09807621135331 5.0 2.0
endloop
endfacet
facet normal -7.74879880383096e-017 1.0 -0.0
outer loop
vertex 9.09807621135332 5.0 6.0
vertex 6.96410161513775 5.0 2.5
vertex 7.06400203764238 5.0 2.74118095489748
endloop
endfacet
facet normal -7.74879880383096e-017 1.0 -0.0
outer loop
vertex 9.09807621135332 5.0 6.0
vertex 7.06400203764238 5.0 2.74118095489748
vertex 7.09807621135332 5.0 3.0
endloop
endfacet
facet normal -7.74879880383096e-017 1.0 -0.0
outer loop
vertex 9.09807621135332 5.0 6.0
vertex 7.09807621135332 5.0 3.0
vertex 7.06400203764238 5.0 3.25881904510252
endloop
endfacet
facet normal -7.74879880383096e-017 1.0 -0.0
outer loop
vertex 9.09807621135332 5.0 6.0
vertex 7.06400203764238 5.0 3.25881904510252
vertex 6.96410161513775 5.0 3.5
endloop
endfacet
facet normal -7.74879880383096e-017 1.0 -0.0
outer loop
vertex 9.09807621135332 5.0 6.0
vertex 6.96410161513775 5.0 3.5
vertex 6.80518299253986 5.0 3.70710678118655
endloop
endfacet
facet normal -7.74879880383096e-017 1.0 -0.0
outer loop
vertex 9.09807621135332 5.0 6.0
vertex 6.80518299253986 5.0 3.70710678118655
vertex 6.59807621135331 5.0 3.86602540378444
endloop
endfacet
facet normal -7.74879880383096e-017 1.0 -0.0
outer loop
vertex 9.09807621135332 5.0 6.0
vertex 6.59807621135331 5.0 3.86602540378444
vertex 6.35689525645584 5.0 3.96592582628907
endloop
endfacet
facet normal -7.74879880383096e-017 1.0 -0.0
outer loop
vertex 9.09807621135332 5.0 6.0
vertex 6.35689525645584 5.0 3.96592582628907
vertex 6.09807621135331 5.0 4.0
endloop
endfacet
facet normal -7.74879880383096e-017 1.0 -0.0
outer loop
vertex 9.09807621135332 5.0 6.0
vertex 6.09807621135331 5.0 4.0
vertex 1.83697019872103e-016 5.0 6.0
endloop
endfacet
facet normal 1.0 -2.34997206878991e-016 -0.0
outer loop
vertex 10.0980762113533 4.0 0.0
vertex 10.0980762113533 -2.0 6.0
vertex 10.0980762113533 -2.0 0.0
endloop
endfacet
facet normal 1.0 -2.34997206878991e-016 -0.0
outer loop
vertex 10.0980762113533 -2.0 6.0
vertex 10.0980762113533 4.0 0.0
vertex 10.0980762113533 4.0 6.0
endloop
endfacet
facet normal 0.0980171403295618 0.995184726672197 -0.0
outer loop
vertex 9.09807621135332 5.0 6.0
vertex 9.29316653336944 4.98078528040323 0.0
vertex 9.09807621135332 5.0 0.0
endloop
endfacet
facet normal 0.0980171403295618 0.995184726672197 -0.0
outer loop
vertex 9.29316653336944 4.98078528040323 0.0
vertex 9.09807621135332 5.0 6.0
vertex 9.29316653336944 4.98078528040323 6.0
endloop
endfacet
facet normal 0.290284677254461 0.956940335732209 -0.0
outer loop
vertex 9.29316653336944 4.98078528040323 6.0
vertex 9.48075964371841 4.92387953251129 0.0
vertex 9.29316653336944 4.98078528040323 0.0
endloop
endfacet
facet normal 0.290284677254461 0.956940335732209 -0.0
outer loop
vertex 9.48075964371841 4.92387953251129 0.0
vertex 9.29316653336944 4.98078528040323 6.0
vertex 9.48075964371841 4.92387953251129 6.0
endloop
endfacet
facet normal 0.471396736825997 0.881921264348355 -0.0
outer loop
vertex 9.48075964371841 4.92387953251129 6.0
vertex 9.65364644437292 4.83146961230255 0.0
vertex 9.48075964371841 4.92387953251129 0.0
endloop
endfacet
facet normal 0.471396736825997 0.881921264348355 -0.0
outer loop
vertex 9.65364644437292 4.83146961230255 0.0
vertex 9.48075964371841 4.92387953251129 6.0
vertex 9.65364644437292 4.83146961230255 6.0
endloop
endfacet
facet normal 0.634393284163644 0.773010453362738 -0.0
outer loop
vertex 9.65364644437292 4.83146961230255 6.0
vertex 9.80518299253986 4.70710678118655 0.0
vertex 9.65364644437292 4.83146961230255 0.0
endloop
endfacet
facet normal 0.634393284163644 0.773010453362738 -0.0
outer loop
vertex 9.80518299253986 4.70710678118655 0.0
vertex 9.65364644437292 4.83146961230255 6.0
vertex 9.80518299253986 4.70710678118655 6.0
endloop
endfacet
facet normal 0.77301045336274 0.634393284163642 -0.0
outer loop
vertex 9.80518299253986 4.70710678118655 0.0
vertex 9.92954582365586 4.5555702330196 6.0
vertex 9.92954582365586 4.5555702330196 0.0
endloop
endfacet
facet normal 0.77301045336274 0.634393284163642 -0.0
outer loop
vertex 9.92954582365586 4.5555702330196 6.0
vertex 9.80518299253986 4.70710678118655 0.0
vertex 9.80518299253986 4.70710678118655 6.0
endloop
endfacet
facet normal 0.881921264348355 0.471396736825997 -0.0
outer loop
vertex 9.92954582365586 4.5555702330196 0.0
vertex 10.0219557438646 4.38268343236509 6.0
vertex 10.0219557438646 4.38268343236509 0.0
endloop
endfacet
facet normal 0.881921264348355 0.471396736825997 -0.0
outer loop
vertex 10.0219557438646 4.38268343236509 6.0
vertex 9.92954582365586 4.5555702330196 0.0
vertex 9.92954582365586 4.5555702330196 6.0
endloop
endfacet
facet normal 0.956940335732207 0.290284677254467 -0.0
outer loop
vertex 10.0219557438646 4.38268343236509 0.0
vertex 10.0788614917565 4.19509032201613 6.0
vertex 10.0788614917565 4.19509032201613 0.0
endloop
endfacet
facet normal 0.956940335732207 0.290284677254467 -0.0
outer loop
vertex 10.0788614917565 4.19509032201613 6.0
vertex 10.0219557438646 4.38268343236509 0.0
vertex 10.0219557438646 4.38268343236509 6.0
endloop
endfacet
facet normal 0.995184726672197 0.0980171403295582 -0.0
outer loop
vertex 10.0788614917565 4.19509032201613 0.0
vertex 10.0980762113533 4.0 6.0
vertex 10.0980762113533 4.0 0.0
endloop
endfacet
facet normal 0.995184726672197 0.0980171403295582 -0.0
outer loop
vertex 10.0980762113533 4.0 6.0
vertex 10.0788614917565 4.19509032201613 0.0
vertex 10.0788614917565 4.19509032201613 6.0
endloop
endfacet
facet normal 0.995184726672197 -0.0980171403295584 -0.0
outer loop
vertex 10.0980762113533 -2.0 0.0
vertex 10.0788614917565 -2.19509032201613 6.0
vertex 10.0788614917565 -2.19509032201613 0.0
endloop
endfacet
facet normal 0.995184726672197 -0.0980171403295584 -0.0
outer loop
vertex 10.0788614917565 -2.19509032201613 6.0
vertex 10.0980762113533 -2.0 0.0
vertex 10.0980762113533 -2.0 6.0
endloop
endfacet
facet normal 0.956940335732207 -0.290284677254467 -0.0
outer loop
vertex 10.0788614917565 -2.19509032201613 0.0
vertex 10.0219557438646 -2.38268343236509 6.0
vertex 10.0219557438646 -2.38268343236509 0.0
endloop
endfacet
facet normal 0.956940335732207 -0.290284677254467 -0.0
outer loop
vertex 10.0219557438646 -2.38268343236509 6.0
vertex 10.0788614917565 -2.19509032201613 0.0
vertex 10.0788614917565 -2.19509032201613 6.0
endloop
endfacet
facet normal 0.881921264348355 -0.471396736825997 -0.0
outer loop
vertex 10.0219557438646 -2.38268343236509 0.0
vertex 9.92954582365586 -2.5555702330196 6.0
vertex 9.92954582365586 -2.5555702330196 0.0
endloop
endfacet
facet normal 0.881921264348355 -0.471396736825997 -0.0
outer loop
vertex 9.92954582365586 -2.5555702330196 6.0
vertex 10.0219557438646 -2.38268343236509 0.0
vertex 10.0219557438646 -2.38268343236509 6.0
endloop
endfacet
facet normal 0.773010453362736 -0.634393284163647 -0.0
outer loop
vertex 9.92954582365586 -2.5555702330196 0.0
vertex 9.80518299253986 -2.70710678118655 6.0
vertex 9.80518299253986 -2.70710678118655 0.0
endloop
endfacet
facet normal 0.773010453362736 -0.634393284163647 -0.0
outer loop
vertex 9.80518299253986 -2.70710678118655 6.0
vertex 9.92954582365586 -2.5555702330196 0.0
vertex 9.92954582365586 -2.5555702330196 6.0
endloop
endfacet
facet normal 0.634393284163648 -0.773010453362735 0.0
outer loop
vertex 9.80518299253986 -2.70710678118655 6.0
vertex 9.65364644437292 -2.83146961230254 0.0
vertex 9.80518299253986 -2.70710678118655 0.0
endloop
endfacet
facet normal 0.634393284163648 -0.773010453362735 0.0
outer loop
vertex 9.65364644437292 -2.83146961230254 0.0
vertex 9.80518299253986 -2.70710678118655 6.0
vertex 9.65364644437292 -2.83146961230254 6.0
endloop
endfacet
facet normal 0.471396736825997 -0.881921264348355 0.0
outer loop
vertex 9.65364644437292 -2.83146961230254 6.0
vertex 9.4807596437184 -2.92387953251129 0.0
vertex 9.65364644437292 -2.83146961230254 0.0
endloop
endfacet
facet normal 0.471396736825997 -0.881921264348355 0.0
outer loop
vertex 9.4807596437184 -2.92387953251129 0.0
vertex 9.65364644437292 -2.83146961230254 6.0
vertex 9.4807596437184 -2.92387953251129 6.0
endloop
endfacet
facet normal 0.290284677254463 -0.956940335732209 0.0
outer loop
vertex 9.4807596437184 -2.92387953251129 6.0
vertex 9.29316653336944 -2.98078528040323 0.0
vertex 9.4807596437184 -2.92387953251129 0.0
endloop
endfacet
facet normal 0.290284677254463 -0.956940335732209 0.0
outer loop
vertex 9.29316653336944 -2.98078528040323 0.0
vertex 9.4807596437184 -2.92387953251129 6.0
vertex 9.29316653336944 -2.98078528040323 6.0
endloop
endfacet
facet normal 0.0980171403295617 -0.995184726672197 0.0
outer loop
vertex 9.29316653336944 -2.98078528040323 6.0
vertex 9.09807621135331 -3.0 0.0
vertex 9.29316653336944 -2.98078528040323 0.0
endloop
endfacet
facet normal 0.0980171403295617 -0.995184726672197 0.0
outer loop
vertex 9.09807621135331 -3.0 0.0
vertex 9.29316653336944 -2.98078528040323 6.0
vertex 9.09807621135331 -3.0 6.0
endloop
endfacet
facet normal 0.793353340291236 -2.980076875908e-031 0.60876142900872
outer loop
vertex 5.39096943016677 5.0 2.29289321881345
vertex 5.23205080756888 -3.0 2.5
vertex 5.39096943016677 -3.0 2.29289321881345
endloop
endfacet
facet normal 0.793353340291236 -2.980076875908e-031 0.60876142900872
outer loop
vertex 5.23205080756888 -3.0 2.5
vertex 5.39096943016677 5.0 2.29289321881345
vertex 5.23205080756888 5.0 2.5
endloop
endfacet
facet normal 0.60876142900872 -2.82716918626994e-031 0.793353340291236
outer loop
vertex 5.59807621135332 -3.0 2.13397459621556
vertex 5.39096943016677 5.0 2.29289321881345
vertex 5.39096943016677 -3.0 2.29289321881345
endloop
endfacet
facet normal 0.60876142900872 -2.82716918626994e-031 0.793353340291236
outer loop
vertex 5.39096943016677 5.0 2.29289321881345
vertex 5.59807621135332 -3.0 2.13397459621556
vertex 5.59807621135332 5.0 2.13397459621556
endloop
endfacet
facet normal 0.382683432365089 -2.48159458870557e-031 0.923879532511287
outer loop
vertex 5.83925716625079 -3.0 2.03407417371093
vertex 5.59807621135332 5.0 2.13397459621556
vertex 5.59807621135332 -3.0 2.13397459621556
endloop
endfacet
facet normal 0.382683432365089 -2.48159458870557e-031 0.923879532511287
outer loop
vertex 5.59807621135332 5.0 2.13397459621556
vertex 5.83925716625079 -3.0 2.03407417371093
vertex 5.83925716625079 5.0 2.03407417371093
endloop
endfacet
facet normal 0.130526192220052 -1.96690342094988e-031 0.99144486137381
outer loop
vertex 6.09807621135331 -3.0 2.0
vertex 5.83925716625079 5.0 2.03407417371093
vertex 5.83925716625079 -3.0 2.03407417371093
endloop
endfacet
facet normal 0.130526192220052 -1.96690342094988e-031 0.99144486137381
outer loop
vertex 5.83925716625079 5.0 2.03407417371093
vertex 6.09807621135331 -3.0 2.0
vertex 6.09807621135331 5.0 2.0
endloop
endfacet
facet normal -0.130526192220052 -1.31817103551804e-031 0.99144486137381
outer loop
vertex 6.35689525645584 -3.0 2.03407417371093
vertex 6.09807621135331 5.0 2.0
vertex 6.09807621135331 -3.0 2.0
endloop
endfacet
facet normal -0.130526192220052 -1.31817103551804e-031 0.99144486137381
outer loop
vertex 6.09807621135331 5.0 2.0
vertex 6.35689525645584 -3.0 2.03407417371093
vertex 6.35689525645584 5.0 2.03407417371093
endloop
endfacet
facet normal -0.38268343236509 -5.79607472396281e-032 0.923879532511287
outer loop
vertex 6.59807621135331 -3.0 2.13397459621556
vertex 6.35689525645584 5.0 2.03407417371093
vertex 6.35689525645584 -3.0 2.03407417371093
endloop
endfacet
facet normal -0.38268343236509 -5.79607472396281e-032 0.923879532511287
outer loop
vertex 6.35689525645584 5.0 2.03407417371093
vertex 6.59807621135331 -3.0 2.13397459621556
vertex 6.59807621135331 5.0 2.13397459621556
endloop
endfacet
facet normal -0.608761429008721 1.98455382122646e-032 0.793353340291235
outer loop
vertex 6.80518299253986 -3.0 2.29289321881345
vertex 6.59807621135331 5.0 2.13397459621556
vertex 6.59807621135331 -3.0 2.13397459621556
endloop
endfacet
facet normal -0.608761429008721 1.98455382122646e-032 0.793353340291235
outer loop
vertex 6.59807621135331 5.0 2.13397459621556
vertex 6.80518299253986 -3.0 2.29289321881345
vertex 6.80518299253986 5.0 2.29289321881345
endloop
endfacet
facet normal -0.793353340291235 9.62993830312943e-032 0.608761429008721
outer loop
vertex 6.96410161513775 5.0 2.5
vertex 6.80518299253986 -3.0 2.29289321881345
vertex 6.96410161513775 -3.0 2.5
endloop
endfacet
facet normal -0.793353340291235 9.62993830312943e-032 0.608761429008721
outer loop
vertex 6.80518299253986 -3.0 2.29289321881345
vertex 6.96410161513775 5.0 2.5
vertex 6.80518299253986 5.0 2.29289321881345
endloop
endfacet
facet normal -0.923879532511286 1.66190584038996e-031 0.382683432365091
outer loop
vertex 7.06400203764238 5.0 2.74118095489748
vertex 6.96410161513775 -3.0 2.5
vertex 7.06400203764238 -3.0 2.74118095489748
endloop
endfacet
facet normal -0.923879532511286 1.66190584038996e-031 0.382683432365091
outer loop
vertex 6.96410161513775 -3.0 2.5
vertex 7.06400203764238 5.0 2.74118095489748
vertex 6.96410161513775 5.0 2.5
endloop
endfacet
facet normal -0.99144486137381 2.24756171387366e-031 0.130526192220052
outer loop
vertex 7.09807621135332 5.0 3.0
vertex 7.06400203764238 -3.0 2.74118095489748
vertex 7.09807621135332 -3.0 3.0
endloop
endfacet
facet normal -0.99144486137381 2.24756171387366e-031 0.130526192220052
outer loop
vertex 7.06400203764238 -3.0 2.74118095489748
vertex 7.09807621135332 5.0 3.0
vertex 7.06400203764238 5.0 2.74118095489748
endloop
endfacet
facet normal -0.130526192220052 1.96690342094988e-031 -0.99144486137381
outer loop
vertex 6.35689525645584 5.0 3.96592582628907
vertex 6.09807621135331 -3.0 4.0
vertex 6.09807621135331 5.0 4.0
endloop
endfacet
facet normal -0.130526192220052 1.96690342094988e-031 -0.99144486137381
outer loop
vertex 6.09807621135331 -3.0 4.0
vertex 6.35689525645584 5.0 3.96592582628907
vertex 6.35689525645584 -3.0 3.96592582628907
endloop
endfacet
facet normal 0.130526192220051 1.31817103551804e-031 -0.99144486137381
outer loop
vertex 6.09807621135331 5.0 4.0
vertex 5.83925716625079 -3.0 3.96592582628907
vertex 5.83925716625079 5.0 3.96592582628907
endloop
endfacet
facet normal 0.130526192220051 1.31817103551804e-031 -0.99144486137381
outer loop
vertex 5.83925716625079 -3.0 3.96592582628907
vertex 6.09807621135331 5.0 4.0
vertex 6.09807621135331 -3.0 4.0
endloop
endfacet
facet normal 0.382683432365091 5.79607472396277e-032 -0.923879532511286
outer loop
vertex 5.83925716625079 5.0 3.96592582628907
vertex 5.59807621135331 -3.0 3.86602540378444
vertex 5.59807621135331 5.0 3.86602540378444
endloop
endfacet
facet normal 0.382683432365091 5.79607472396277e-032 -0.923879532511286
outer loop
vertex 5.59807621135331 -3.0 3.86602540378444
vertex 5.83925716625079 5.0 3.96592582628907
vertex 5.83925716625079 -3.0 3.96592582628907
endloop
endfacet
facet normal 0.608761429008721 -1.98455382122649e-032 -0.793353340291235
outer loop
vertex 5.59807621135331 5.0 3.86602540378444
vertex 5.39096943016677 -3.0 3.70710678118655
vertex 5.39096943016677 5.0 3.70710678118655
endloop
endfacet
facet normal 0.608761429008721 -1.98455382122649e-032 -0.793353340291235
outer loop
vertex 5.39096943016677 -3.0 3.70710678118655
vertex 5.59807621135331 5.0 3.86602540378444
vertex 5.59807621135331 -3.0 3.86602540378444
endloop
endfacet
facet normal 0.793353340291235 -9.62993830312941e-032 -0.608761429008721
outer loop
vertex 5.23205080756888 5.0 3.5
vertex 5.39096943016677 -3.0 3.70710678118655
vertex 5.23205080756888 -3.0 3.5
endloop
endfacet
facet normal 0.793353340291235 -9.62993830312941e-032 -0.608761429008721
outer loop
vertex 5.39096943016677 -3.0 3.70710678118655
vertex 5.23205080756888 5.0 3.5
vertex 5.39096943016677 5.0 3.70710678118655
endloop
endfacet
facet normal 0.923879532511287 -1.66190584038996e-031 -0.382683432365089
outer loop
vertex 5.13215038506425 5.0 3.25881904510252
vertex 5.23205080756888 -3.0 3.5
vertex 5.13215038506425 -3.0 3.25881904510252
endloop
endfacet
facet normal 0.923879532511287 -1.66190584038996e-031 -0.382683432365089
outer loop
vertex 5.23205080756888 -3.0 3.5
vertex 5.13215038506425 5.0 3.25881904510252
vertex 5.23205080756888 5.0 3.5
endloop
endfacet
facet normal 0.99144486137381 -2.24756171387366e-031 -0.130526192220052
outer loop
vertex 5.09807621135331 5.0 3.0
vertex 5.13215038506425 -3.0 3.25881904510252
vertex 5.09807621135331 -3.0 3.0
endloop
endfacet
facet normal 0.99144486137381 -2.24756171387366e-031 -0.130526192220052
outer loop
vertex 5.13215038506425 -3.0 3.25881904510252
vertex 5.09807621135331 5.0 3.0
vertex 5.13215038506425 5.0 3.25881904510252
endloop
endfacet
facet normal 0.99144486137381 -2.68004997082822e-031 0.130526192220052
outer loop
vertex 5.13215038506425 5.0 2.74118095489748
vertex 5.09807621135331 -3.0 3.0
vertex 5.13215038506425 -3.0 2.74118095489748
endloop
endfacet
facet normal 0.99144486137381 -2.68004997082822e-031 0.130526192220052
outer loop
vertex 5.09807621135331 -3.0 3.0
vertex 5.13215038506425 5.0 2.74118095489748
vertex 5.09807621135331 5.0 3.0
endloop
endfacet
facet normal 0.923879532511286 -2.92989725126282e-031 0.382683432365091
outer loop
vertex 5.23205080756888 5.0 2.5
vertex 5.13215038506425 -3.0 2.74118095489748
vertex 5.23205080756888 -3.0 2.5
endloop
endfacet
facet normal 0.923879532511286 -2.92989725126282e-031 0.382683432365091
outer loop
vertex 5.13215038506425 -3.0 2.74118095489748
vertex 5.23205080756888 5.0 2.5
vertex 5.13215038506425 5.0 2.74118095489748
endloop
endfacet
facet normal -0.99144486137381 2.68004997082822e-031 -0.130526192220051
outer loop
vertex 7.06400203764238 5.0 3.25881904510252
vertex 7.09807621135332 -3.0 3.0
vertex 7.06400203764238 -3.0 3.25881904510252
endloop
endfacet
facet normal -0.99144486137381 2.68004997082822e-031 -0.130526192220051
outer loop
vertex 7.09807621135332 -3.0 3.0
vertex 7.06400203764238 5.0 3.25881904510252
vertex 7.09807621135332 5.0 3.0
endloop
endfacet
facet normal -0.923879532511286 2.92989725126282e-031 -0.382683432365091
outer loop
vertex 6.96410161513775 5.0 3.5
vertex 7.06400203764238 -3.0 3.25881904510252
vertex 6.96410161513775 -3.0 3.5
endloop
endfacet
facet normal -0.923879532511286 2.92989725126282e-031 -0.382683432365091
outer loop
vertex 7.06400203764238 -3.0 3.25881904510252
vertex 6.96410161513775 5.0 3.5
vertex 7.06400203764238 5.0 3.25881904510252
endloop
endfacet
facet normal -0.793353340291235 2.980076875908e-031 -0.608761429008721
outer loop
vertex 6.80518299253986 5.0 3.70710678118655
vertex 6.96410161513775 -3.0 3.5
vertex 6.80518299253986 -3.0 3.70710678118655
endloop
endfacet
facet normal -0.793353340291235 2.980076875908e-031 -0.608761429008721
outer loop
vertex 6.96410161513775 -3.0 3.5
vertex 6.80518299253986 5.0 3.70710678118655
vertex 6.96410161513775 5.0 3.5
endloop
endfacet
facet normal -0.608761429008721 2.82716918626994e-031 -0.793353340291235
outer loop
vertex 6.80518299253986 5.0 3.70710678118655
vertex 6.59807621135331 -3.0 3.86602540378444
vertex 6.59807621135331 5.0 3.86602540378444
endloop
endfacet
facet normal -0.608761429008721 2.82716918626994e-031 -0.793353340291235
outer loop
vertex 6.59807621135331 -3.0 3.86602540378444
vertex 6.80518299253986 5.0 3.70710678118655
vertex 6.80518299253986 -3.0 3.70710678118655
endloop
endfacet
facet normal -0.382683432365089 2.48159458870557e-031 -0.923879532511287
outer loop
vertex 6.59807621135331 5.0 3.86602540378444
vertex 6.35689525645584 -3.0 3.96592582628907
vertex 6.35689525645584 5.0 3.96592582628907
endloop
endfacet
facet normal -0.382683432365089 2.48159458870557e-031 -0.923879532511287
outer loop
vertex 6.35689525645584 -3.0 3.96592582628907
vertex 6.59807621135331 5.0 3.86602540378444
vertex 6.59807621135331 -3.0 3.86602540378444
endloop
endfacet
endsolid model
